<?xml version="1.0" encoding="utf-8"?>
<!-- Generator: Adobe Illustrator 18.0.0, SVG Export Plug-In . SVG Version: 6.00 Build 0)  -->
<!DOCTYPE svg PUBLIC "-//W3C//DTD SVG 1.1//EN" "http://www.w3.org/Graphics/SVG/1.1/DTD/svg11.dtd">
<svg version="1.1" id="圖層_1" xmlns="http://www.w3.org/2000/svg" xmlns:xlink="http://www.w3.org/1999/xlink" x="0px" y="0px"
	 viewBox="0 0 586.8 286.1" enable-background="new 0 0 586.8 286.1" xml:space="preserve">
<g>
	<path fill="#FFFFFF" d="M78,151.6c-1.4-1.5-1.8-2.7-1.4-3.8c0.3-1,0.8-1.8,1.6-2.2c0.6-0.2,1.3,0.2,2,1.3c1.1,1.4,3.6,1.5,7.3,0.5
		c5.3-1.5,12.4-4.2,21.3-8.3c4.8-2.3,10.3-4.7,16.6-7.2c-0.2-0.9-0.3-1.8-0.3-2.5c-0.1-1-0.4-2.1-0.8-3.1
		c-9.7,6.5-16.6,10.1-20.6,10.8c-1.7,0.2-2.6-0.1-2.7-0.8c-0.2-0.8,0.2-1.4,1.1-1.7c7.7-3.1,16.3-8.2,25.8-15.2
		c0.1-2.4,0.3-5.4,0.6-8.9c-0.7,0.2-1.4,0.5-2,0.8c-11.3,5.2-19.1,7.8-23.6,7.8c-1.5,0-2-0.9-1.7-2.8c0.3-2.2,1.1-3.2,2.5-3.1
		c4.2,0.6,11.3-1.5,21.4-6.3c1.3-0.6,2.6-1.1,3.9-1.6c0.2-3.3,0.5-7.1,0.8-11.3c-2.5,0.8-4.6,1.6-6.3,2.3
		c-11.1,4.9-19.3,7.9-24.4,8.9c-2.3,0.5-3.9,0.4-4.8-0.3c-0.9-0.7-1.5-1.7-1.6-3c0.1-1.7,0.3-2.6,0.6-2.7c0.3-0.1,0.5-0.2,0.6-0.2
		c0.4-0.1,1.1,0.2,2.2,0.8c0.7,0.4,1.9,0.5,3.6,0.2c3.9-0.9,10.4-3.3,19.5-7.2c3-1.5,6.6-2.8,10.8-4.1c0.3-4.5,0.6-9.4,0.9-14.7
		c0.1-1.7-0.1-3-0.5-4.1c-0.3-0.9-1.1-1.5-2.5-1.6c-1.5-0.3-2.6-0.1-3.3,0.6c-0.6,0.5-1.3,0.5-2-0.2c-0.5-0.5,0.2-1.6,2.2-3.1
		c1.7-1.1,3.6-1.5,5.8-1.1c2.9,0.6,4.6,2,5,4.2c0.6,2.4,0.8,4.7,0.5,6.9c-0.5,3.5-0.9,7.4-1.3,11.6c5.2-1.8,11.1-3.3,17.8-4.7
		c4.2-0.8,7.1-1.1,8.8-0.8c1.1,0.2,1.8,0.7,1.9,1.4c0.2,1.1-0.6,2.5-2.5,4.1c-2.3,1.8-3.8,2.3-4.4,1.6c-0.5-0.6-1.1-0.9-1.7-0.9
		c-1.5,0.1-5.1,0.8-10.8,2c-3.8,0.7-6.9,1.6-9.5,2.5c-0.2,2-0.4,4.1-0.5,6.3c-0.1,1.5-0.2,3-0.3,4.5c6-2.6,10.1-4,12-4.1
		c1.3-0.2,2.4,0,3.4,0.6c0.4,0.2,0.8,0.3,1.3,0.2c4,0.6,4.4,2.3,1.3,5.2c-2.3,2.4-4.8,4.6-7.7,6.6c-4.3,2.9-8,5.7-11.1,8.3
		c-0.3,3.4-0.7,6.5-1.1,9.1c4.7-1.9,8.6-3.3,11.9-4.4c1.9-0.6,5.2-2.1,10-4.4c0.7-0.4,1.6-0.3,2.5,0.3c1,0.7,1.6,1.6,1.6,2.7
		c0.1,0.8-0.2,1.3-0.9,1.4c-4.7,0.5-9.7,3.3-15.2,8.3c-7.2,5.7-15.2,13-23.9,21.7c0.3,0.6,0.3,1.3,0,2c-1.9,3.9-3.3,9.4-4.4,16.7
		c-0.8,5.9-1,14.4-0.6,25.3c0.1,2.9,0.6,4.4,1.6,4.5c1.9,0,3.6-0.8,5.3-2.5c2.9-2.9,5.8-6.1,8.8-9.7c6.6-7.8,11.6-14.4,15.2-19.7
		c-7.6-1.1-15.4-1.7-23.3-1.6c-2.1,0.1-3.2-0.5-3.3-1.7c-0.2-1.5,1.1-2.2,3.9-2.3c8.5-0.3,17,0.2,25.5,1.4c2.3-4.1,3.8-7.4,4.4-10
		c0.1-1,0.6-1.6,1.6-1.6c1.1,0,1.7,0.7,1.7,2c-0.2,2.6-1.5,6-3.8,10.2c10.6,1.7,20.8,4.6,30.6,8.8c6.5,2.8,10.2,5.1,11.1,6.7
		c0.6,0.9,1.1,1.6,1.6,1.9c1.5,1.5,2,3.2,1.6,5.2c-0.3,1.5-1.1,2-2.5,1.6c-1.1-0.3-3.2-0.4-6.1-0.3c-3.5,0-6.6-0.2-9.2-0.6
		c-1.5-0.6-2.1-1.3-2-2c0.1-0.6,0.8-0.9,2-0.8c6.4,0.4,10,0.1,10.9-0.9c0.5-1.3-3.9-3.8-13.3-7.5c-9-3.8-18-6.3-27.2-7.7
		c-6.7,10.5-13,19.1-18.9,25.6c-4.2,4.7-7.6,8-10.2,10c-1,0.8-2,1.1-3,0.8c-1.3-0.4-2.4-0.3-3.4,0.3c-1.1,0.6-2.2,0-3.1-1.9
		c-0.8-1.5-1.4-4.1-1.7-7.8c-0.3-5.8-0.1-13.3,0.6-22.3c0.4-5.4,1.1-10.2,2-14.4c-10.1,10.1-18.2,16.8-24.2,20
		c-5.7,2.9-9.3,4.3-10.6,4.2c-1.8-0.4-2.2-1.3-1.3-2.7c0.5-0.8,1-2.1,1.4-3.8c0.2-0.4,0.5-0.7,0.9-0.8c0.5-0.1,0.8,0.4,0.9,1.4
		c0.2,0.8,0.8,0.9,1.9,0.3c8.4-4.7,17.5-11.9,27.2-21.7c2.1-2.4,4.3-4.6,6.6-6.6c0.2-0.2,0.4-0.4,0.5-0.5c4.8-4.5,9.4-8.6,13.9-12.3
		c6.6-5.3,9.7-8.2,9.4-8.6c-0.6-0.3-2.6,0.2-5.8,1.6c-0.3,0.7-0.5,1.3-0.6,1.7c-0.7,0.9-1.5,1.4-2.2,1.4c-0.5-0.1-1-0.5-1.4-1.3
		c-2.8,1.1-6,2.7-9.5,4.7c-13.8,7.2-23.4,11.5-29.1,12.8C83.3,153.6,80,153.3,78,151.6z M169.4,132.4c0.9-0.3,1.8,0.2,2.5,1.6
		c0.6,1.3,0.3,3-0.9,5.3c-0.8,1.7-2.2,3.3-4.2,5c-2.2,1.8-6,4.1-11.4,7c-6.3,3.4-9.9,5.4-10.9,5.8c-4.5,2.5-7.5,4.1-9.1,4.8
		c-1.4,0.6-2.7,0.9-4.1,0.8c-1.4-0.4-2.4-1.1-3.1-2.2c-0.7-1.3-0.7-2.1,0-2.5c0.9-0.5,1.6-0.6,1.9-0.2c0.5,0.6,1,1,1.4,1.1
		c0.6,0,1.4-0.2,2.3-0.6c1.3-0.7,3.8-2.1,7.5-4.1c1.3-0.7,4.3-2.4,9.1-5c3.6-2,8.3-5,13.9-9.1c0.6-0.3,1.6-1.7,3-4.2
		C167.9,133.9,168.7,132.7,169.4,132.4z M133.2,115.6c8.3-6.1,12.3-9.5,11.9-10.2c-0.5-0.7-4.4,0.4-11.7,3.3
		C133.2,111,133.2,113.3,133.2,115.6z"/>
	<path fill="#FFFFFF" d="M231.7,133.8c-0.9-0.7-1.5-1.7-1.6-3c0-1.7,0.2-2.6,0.6-2.7c0.3-0.1,0.5-0.2,0.6-0.2
		c0.4-0.1,1.1,0.2,2.2,0.8c0.6,0.3,1.6,0.3,2.8,0c3-0.6,8.2-2.6,15.5-5.8c2.7-1.4,6-2.6,9.8-3.6c0.9-1.3,1.5-2.6,1.6-3.9
		c0.3-2.5,0.4-5.1,0.3-7.7c-0.6,0.3-1.1,0.5-1.6,0.6c-4.7,2.1-8.2,3.3-10.5,3.8c-2,0.4-3.6,0.1-5-0.9c-0.9-0.7-0.9-2,0.2-3.9
		c0.6-1.1,1.3-1.5,2-1.1c1.1,0.7,2.6,0.9,4.2,0.5c2.2-0.5,4.8-1.5,8-2.8c0.4-0.4,1.1-0.7,2.2-0.8c-0.4-2.6-0.9-5.2-1.6-7.8
		c-0.2-1.1,0.5-1.9,2.2-2.2c1.7-0.2,2.6,0.2,2.7,1.1c0.5,2.5,0.9,4.9,1.3,7.2c1.5-0.7,3.1-1.3,5-1.7c0.8-0.4,1.2-1,1.1-1.7
		c-0.1-0.6,0.2-1.1,0.9-1.6c0.8-0.3,2-0.4,3.6-0.3c1.4,0.1,2.9,0.2,4.5,0.2c1.3-0.1,1.7,0.4,1.3,1.4c-0.2,0.7-0.3,1.5-0.2,2.2
		c0.1,1-0.4,1.6-1.4,1.7c-1.1,0-3.5,0.7-7,2c-2.8,1-5.2,1.9-7.2,2.7c0.1,3,0.1,5.7,0,8c-0.3,1.1-0.5,2.2-0.6,3.3
		c3.2-0.9,6.8-1.9,10.6-2.8c4.1-0.8,6.9-1.1,8.6-0.8c1.1,0.2,1.8,0.7,1.9,1.4c0.3,1.1-0.5,2.5-2.3,4.1c-2.3,1.8-3.8,2.3-4.4,1.6
		c-0.6-0.5-1.1-0.8-1.6-0.8c-1.4,0-4.3,0.5-8.8,1.6c-3.2,0.7-5.8,1.5-7.8,2.2c-1.5,1-2.7,1.6-3.8,1.6h-1.1c-0.6,0.3-1.3,0.5-1.9,0.6
		c0.3,0.2,0.5,0.5,0.6,0.8c0.5,1.1,0.6,2.5,0.2,4.1c-0.2,1.4-1.3,3.2-3.1,5.5c-1.8,2.2-4.1,4.3-7,6.3c-2.7,1.9-7.2,5.3-13.4,10.3
		c-0.7,0.5-1.6,0.7-2.5,0.6c-0.2,0-0.5,0.1-0.9,0.2c-0.7,0.2-1.3,0.2-1.6-0.2c-0.4-0.3-0.6-0.7-0.6-1.1c0-0.6,0.4-1.1,1.1-1.6
		c13.5-10.5,20.9-16.5,22.2-17.8c1.6-2,2.1-3.5,1.7-4.5c-0.1-0.4-0.2-0.7-0.3-0.8c-7.7,3.1-13.3,5.2-16.9,6.3
		C234.4,134.7,232.8,134.6,231.7,133.8z M262.5,132.9c0.6-0.3,1.7-0.3,3.3,0c0.9,0.3,1.5,1,1.6,2c0.1,1.6,0.2,3.3,0.3,5.2
		c3-1.3,5.5-1.9,7.5-2c0.9,0.1,1.8,0.4,2.5,0.8c0.6,0.5,0.6,2,0,4.5c-0.5,1.9-3.4,4.7-8.8,8.4c-0.5,0.2-1,0.5-1.4,0.9
		c-0.3,2.3-0.5,4.6-0.6,6.9c2.6-1.8,5.2-3.5,7.8-5.2c2.3-1.5,4.4-3.2,6.4-5.2c0.6-0.6,1.1-0.9,1.6-0.8c0.6,0.2,1,0.7,1.1,1.4
		c0,0.7-0.5,1.7-1.6,3c-4.6,4.3-10.1,8.3-16.4,12c-5.4,3.1-10.1,5.3-13.9,6.6c-3.2,1.1-5.5,1.7-6.9,1.7c-1.1-0.1-1.9-0.4-2.2-0.8
		c-0.2-0.8-0.3-1.6-0.2-2.3c0.3-0.6,1.3-1.9,3-3.8c3.2-3.4,6.6-6.6,10-9.5c2.4-2.1,4.8-4,7.3-5.6c0.1-1.6,0.2-2.9,0.3-3.9
		c0-0.3-0.1-0.5-0.2-0.6c-0.9,0.5-1.9,1.1-3,1.7c-2.2,1.4-4.5,2.5-7,3.4c-2,0.7-3.5,1-4.5,0.9c-1.3-0.1-2.2-0.5-2.8-1.3
		c-0.7-0.8-0.9-1.6-0.6-2.3c0-0.2,0.5-0.3,1.4-0.3c1.4,0.1,2.7-0.1,4.1-0.5c2.7-1,5.7-2.5,8.9-4.4c1-0.7,2.2-1.3,3.4-1.7
		c-0.3-2.7-0.7-5.2-1.1-7.3C261.6,134,261.8,133.3,262.5,132.9z M266.6,77.3c-1-3.1-2.5-5.3-4.4-6.6c-0.8-0.7-1.2-1.6-1.1-2.7
		c0.3-1.3,1-1.9,2-2c1.1-0.1,2.1,0.2,2.8,0.9c2.1,1.5,3.6,3.8,4.7,7c0.5,1.1,0.8,2.4,0.9,3.8c2.5-0.8,4.1-1.5,4.8-1.9
		c0.7-0.5,1.5-0.6,2.2-0.2c0.6,0.5,0.8,1.3,0.5,2.3c-0.2,1-1,1.8-2.3,2.2c-2,0.6-3.5,1.1-4.5,1.6c0,0.7,0.1,1.5,0.2,2.2
		c0.1,1.7-0.2,3.1-0.9,4.4c-0.7,0.9-1.5,1.2-2.2,0.8c-0.7-0.5-1.1-1.6-1.1-3.1c-0.1-1.1-0.2-2.1-0.3-2.8c-4.1,1.1-6.9,1.9-8.4,2.3
		c-3,0.7-4.7,1.1-5.2,1.1c-0.4,0-0.8,0.2-1.3,0.6c-0.9,0.6-1.8,0.7-2.5,0.3c-0.9-0.5-1.9-1.8-2.8-3.8c-0.5-1.5-0.4-2.4,0.3-2.8
		c0.7-0.2,1.3-0.1,1.7,0.3c0.6,0.3,1.8,0.4,3.4,0.3c3.8-0.5,8.3-1.5,13.8-2.8C266.8,78.2,266.7,77.7,266.6,77.3z M325.5,174.6
		c1,0.4,1.6,1,1.6,1.7c0.1,1.1-0.8,2.4-2.8,3.8c-2.6,1.7-4.1,2-4.5,1.1c-0.4-0.7-0.9-1.1-1.6-1.1c-1.8-0.2-5.8,0.1-12.2,0.8
		c-6.4,0.6-11.8,1.5-16.3,2.5c-0.2,0.7-0.7,1.7-1.4,3c-1.5,2.3-4.9,5.4-10.3,9.2c-4.7,3.3-7.4,5.4-8.1,6.1c-0.9,1.1-1.4,1.9-1.3,2.3
		c0.3,0.8,5.8,0.3,16.4-1.6c5-1,13.8-3.3,26.4-6.9c-1.9-1.5-3.9-2.7-6.1-3.8c-1-0.7-1-1.8,0-3.1c0.9-1.1,1.8-1.5,2.5-1.1
		c7.1,4.1,12.1,7.9,15,11.4c2.5,2.8,3.8,5.4,3.9,7.7c0.2,2.6-0.2,4.4-1.3,5.5c-1,1.1-1.9,1.7-2.7,1.6c-0.5-0.1-0.7-0.9-0.6-2.5
		c0.4-3.1-0.2-5.7-1.9-7.7c-1.6-1.9-3.3-3.6-5.3-5.3c-0.5,0.5-1,0.8-1.4,0.9c-10.8,3.6-19.8,6-27,7c-8.4,1.6-13.9,2.4-16.4,2.5
		c-0.9,0-2.2,0.3-3.8,0.9c-1.7,0.7-3.3,0-5-2.2c-0.7-1.1-0.3-2.9,1.4-5.2c1.8-2.3,6-5.8,12.7-10.5c4.7-3.2,7.2-5.5,7.7-6.9h-0.3
		c-12.8,3.8-22.1,5.9-27.8,6.6c-2.4,0.1-4-0.2-4.7-0.9c-0.8-0.8-1.2-1.9-1.1-3.1c0.1-1.6,0.4-2.4,0.8-2.5c0.3-0.1,0.5-0.2,0.6-0.2
		c0.3,0,1,0.4,2,1.1c0.8,0.5,2.2,0.7,4.1,0.6c4.1-0.4,11.4-2.2,22-5.3c9-2.8,21.6-5.1,38-6.7C320.9,174.1,323.8,174.2,325.5,174.6z
		 M262.7,156.3c-3,2.3-6,4.7-8.9,7.3c-1.7,1.7-2.4,2.7-2.3,3c0.7,0.5,3.4-0.5,8.1-3c0.7-0.5,1.6-1,2.5-1.4
		C262.4,160,262.6,158,262.7,156.3z M267.7,147.7c3.1-2.4,4.5-3.8,4.2-4.1c-0.8-0.6-2.2-0.4-4.1,0.6
		C267.7,145.3,267.7,146.5,267.7,147.7z M289.4,161.8c8.3-2.8,13.5-4.3,15.5-4.4c1.3-0.1,2.4,0.2,3.4,0.8c0.3,0.4,0.7,0.6,1.1,0.5
		c3.8,0.8,4,2.6,0.8,5.2c-1.3,1.1-2.7,2.1-4.2,2.8c-11.4,6.9-18.6,10.4-21.9,10.5c-1.7,0.1-2.6-0.2-2.7-0.9
		c-0.1-0.8,0.4-1.4,1.4-1.7c3.8-1,8-3,12.8-5.9c5.5-3.1,8.2-4.9,8.1-5.3c-0.4-0.6-4.9,0.4-13.4,3c-9,3-15.1,4.4-18.3,4.1
		c-1.5-0.1-2-1.1-1.6-3c0.6-2.3,1.6-3.2,3-2.8C276.5,165.3,281.8,164.4,289.4,161.8z M272.5,128.1c0.1-1.6,0.7-2.3,1.7-2.2
		c4.8,0.5,8.5,1.4,11.1,2.7c2,0.9,3.3,2,3.9,3.3c0.7,1.5,0.9,2.6,0.6,3.3c-0.3,1.6-0.8,2.4-1.6,2.5c-0.7,0.1-1.3-0.5-1.7-1.9
		c-0.5-1.7-1.5-2.7-2.8-3.1c-2.5-1.1-5.8-1.8-10-1.9C272.6,130.6,272.2,129.7,272.5,128.1z M322.1,152.1c-2-2.6-2.7-6.1-2-10.6
		c0.7-6.4,2.1-13,4.1-20c1.4-5.2,2-8.3,2-9.4c-0.1-2.2-1-3.2-2.7-3.1c-0.7,0-2.2,0.3-4.4,0.9c-1,0.2-1.9,0.5-2.7,0.9
		c-0.8,3.6-2.2,8.3-4.1,14.1c-0.9,2.3-1.8,4.5-2.5,6.7c0.3-0.1,0.5-0.1,0.6,0c2.3,0.4,4,1.1,5,2.2c1.3,1.3,1.8,2.3,1.7,3.3
		c0.1,1.6-0.2,2.6-0.8,3c-0.5,0.3-1.3-0.2-2.2-1.4c-1-1.7-2.3-2.6-3.9-2.7c-0.7-0.2-1.5-0.3-2.2-0.2c-1.8,4-3.5,7.2-5.2,9.7
		c-3.2,4.3-6.1,6.9-8.8,8c-1,0.3-1.8,0.5-2.2,0.6c-1.1,0.4-2.3,0.3-3.6-0.3c-1.1-0.7-1.5-1.6-1.1-2.7c0.4-0.6,0.8-0.8,1.3-0.5
		c0.6,0.3,1.1,0.4,1.6,0.3c0.6-0.1,1.3-0.3,2-0.6c1.6-0.7,3.8-3,6.7-6.9c1.5-2.1,2.9-4.5,4.2-7.3c-1.6,0.1-3,0.4-4.4,0.8
		c-1.3,0.1-1.9-0.7-2-2.3c-0.2-1.6,0.2-2.4,1.1-2.5c2.7-0.6,5.2-0.9,7.3-0.8c0.9-2.4,1.9-5,3-7.8c1.5-4.3,2.6-7.8,3.3-10.6
		c-2.5,0.8-5,1.9-7.5,3.1c-4,1.8-6.3,2.7-6.9,2.7s-1.3-0.2-1.9-0.5c-1.6-0.8-2.2-1.9-1.9-3.3c0.2-0.7,0.8-1.3,1.7-1.7
		c0.9-0.4,1.8-0.3,2.5,0.3c0.8,0.4,3-0.2,6.4-1.7c2.8-1.5,5.7-2.7,8.6-3.6c0.2-1.1,0.4-2.1,0.5-2.8c0.1-2.6-0.1-4.3-0.5-5
		c-1.3-1.4-1.7-2.3-1.3-3c1.3-1.5,2.7-2,4.2-1.6c0.8,0.3,1.5,1.3,1.9,2.8c0.4,1.4,0.5,3.6,0.2,6.7c-0.1,0.2-0.2,0.5-0.2,0.9
		c0.8-0.5,1.7-0.8,2.7-0.9c2.7-0.8,5.2-1.2,7.3-1.1c1.3,0,2.3,0.5,3.3,1.6c0.8,0.8,1.2,2.7,1.1,5.5c0,2.1-0.8,5.5-2.5,10.3
		c-2.3,6.3-3.8,12.2-4.5,18c-0.6,4.4-0.3,7.4,0.9,9.1c2.2,2.5,6.4,3.8,12.7,3.9c4.9,0.2,9.6-0.1,14.1-0.8c3-0.6,4.7-1.5,5.2-2.5
		c0.3-1.1,0.3-2.9-0.2-5.2c-1.6-7.7-3.8-14.2-6.6-19.5c-0.5-1-0.5-1.8,0.2-2.2c0.6-0.4,1.3-0.1,2,0.9c4.1,6.5,7.1,13.2,9.1,20.2
		c0.9,3.1,1.2,5.8,0.8,8c-0.6,2.2-2.3,3.6-5.2,4.4c-8.1,1.7-15.1,2.3-20.8,1.9C329.5,157.2,324.6,155.3,322.1,152.1z M313.6,74.3
		c-0.7,1.5-1.5,2.9-2.2,4.2c-2.4,4.3-5.7,8.3-9.8,12.2c-2.8,2.7-5.6,4.3-8.4,4.7c-2.2,0.3-3.3-0.3-3.3-1.9c0-1.1,0.8-1.7,2.5-1.6
		c1,0,3-1.3,5.8-3.8c3.1-2.8,5.8-6.1,8-9.8c0.5-1.3,1.1-2.3,1.7-3.3c-2.9,0.4-6,1-9.2,1.7c-1.7,0.2-2.9,0-3.6-0.6
		c-0.8-0.7-1.1-1.9-0.8-3.4c0.4-1.9,1.1-2.4,2-1.7c0.8,0.6,1.9,0.9,3.1,0.8c4.2-1.3,7.7-1.9,10.6-2c0-0.2,0.1-0.4,0.2-0.5
		c0.5-2.3,0.6-3.6,0.3-4.1c-1-1.6-1-2.9,0-3.9c1.3-1.4,2.3-1.9,3.3-1.6s1.6,1.5,2,3.4c0.4,1.3,0.3,3.2-0.3,5.8h-0.2
		c0.6,0,1.1,0.1,1.6,0.2c2.2,0.1,4-0.2,5.3-0.8c1.3-0.4,3-0.1,5.3,0.9c1,0.5,1.2,1.6,0.5,3.1c-0.7,1.5-1.8,2.1-3.1,2
		c-2.8-0.6-6.4-0.7-10.8-0.3C313.9,74.1,313.7,74.2,313.6,74.3z"/>
	<path fill="#FFFFFF" d="M436.6,137.6c23.6,1.3,45.5,6.9,65.6,17c7.2,3.8,11.3,6.6,12.3,8.6c0.6,1.1,1.1,1.9,1.6,2.3
		c1.7,1.1,2.3,2.7,2,4.7c-0.2,1.4-1,2-2.3,1.9c-0.9-0.1-2.2,0-3.9,0.3c-2.5,0.5-4.6,0.7-6.3,0.6c-1.6-0.2-2.4-0.7-2.5-1.4
		c0-0.7,0.6-1.1,1.9-1.3c4-0.7,6.1-1.5,6.6-2.2c0.7-1.7-4.3-5.1-15-10.2c-19.6-9.8-40.7-15.4-63.3-16.7c-3.2,3.3-6.9,7.2-11.1,11.6
		c-7.5,7.4-14.1,13.3-19.7,17.8c-4.8,3.8-8.8,6.3-11.9,7.7c-1.4,0.5-2.4,0.6-3.1,0.2c-0.5-0.2-0.8-0.6-0.9-1.3
		c-0.1-0.4,0.3-0.8,1.3-1.3c5-2.7,10.7-6.9,17-12.7c6.3-5.6,10.4-9.6,12.3-11.9c2.8-2.9,5.5-5.7,8.1-8.3c4.1-3.9,8.6-9.3,13.6-16.3
		c6-8.3,11.5-15.5,16.3-21.6c4.8-5.8,7.7-9.8,8.8-12c0.8-1.6,1.3-2.6,1.4-3c0-0.5-0.2-0.8-0.6-0.9c-0.4-0.2-1-0.3-1.7-0.2
		c-0.5,0.1-1,0-1.4-0.3c-0.4-0.5-0.6-1.4-0.5-2.7c0-0.8,0.4-1.4,1.1-1.7c2.1-0.6,4.3-0.3,6.6,0.9c2.4,1,3.6,2,3.8,3
		c0,0.6-0.7,2-2,4.2c-2.3,3.8-6.1,8.9-11.4,15.5c-6.5,7.8-12,15.2-16.7,22C440.8,132.2,438.9,134.7,436.6,137.6z"/>
</g>
</svg>
