<?xml version="1.0" encoding="utf-8"?>
<!-- Generator: Adobe Illustrator 18.0.0, SVG Export Plug-In . SVG Version: 6.00 Build 0)  -->
<!DOCTYPE svg PUBLIC "-//W3C//DTD SVG 1.1//EN" "http://www.w3.org/Graphics/SVG/1.1/DTD/svg11.dtd">
<svg version="1.1" id="圖層_1" xmlns="http://www.w3.org/2000/svg" xmlns:xlink="http://www.w3.org/1999/xlink" x="0px" y="0px"
	 viewBox="200 -50 1214 575" width="400" height="200" xml:space="preserve">
<g transform="translate(200,-150) scale(2)">
	<g>
		<path fill="#FFFFFF" d="M78.1,170.7c-1.4-1.5-1.8-2.7-1.4-3.8c0.3-1,0.8-1.8,1.6-2.2c0.6-0.2,1.3,0.2,2,1.3c1.1,1.4,3.6,1.5,7.3,0.5
			c5.3-1.5,12.4-4.2,21.3-8.3c4.8-2.3,10.3-4.7,16.6-7.2c-0.2-0.9-0.3-1.8-0.3-2.5c-0.1-1-0.4-2.1-0.8-3.1
			c-9.7,6.5-16.6,10.1-20.6,10.8c-1.7,0.2-2.6-0.1-2.7-0.8c-0.2-0.8,0.2-1.4,1.1-1.7c7.7-3.1,16.3-8.2,25.8-15.2
			c0.1-2.4,0.3-5.4,0.6-8.9c-0.7,0.2-1.4,0.5-2,0.8c-11.3,5.2-19.1,7.8-23.6,7.8c-1.5,0-2-0.9-1.7-2.8c0.3-2.2,1.1-3.2,2.5-3.1
			c4.2,0.6,11.3-1.5,21.4-6.3c1.3-0.6,2.6-1.1,3.9-1.6c0.2-3.3,0.5-7.1,0.8-11.3c-2.5,0.8-4.6,1.6-6.3,2.3
			c-11.1,4.9-19.3,7.9-24.4,8.9c-2.3,0.5-3.9,0.4-4.8-0.3c-0.9-0.7-1.5-1.7-1.6-3c0.1-1.7,0.3-2.6,0.6-2.7c0.3-0.1,0.5-0.2,0.6-0.2
			c0.4-0.1,1.1,0.2,2.2,0.8c0.7,0.4,1.9,0.5,3.6,0.2c3.9-0.9,10.4-3.3,19.5-7.2c3-1.5,6.6-2.8,10.8-4.1c0.3-4.5,0.6-9.4,0.9-14.7
			c0.1-1.7-0.1-3-0.5-4.1c-0.3-0.9-1.1-1.5-2.5-1.6c-1.5-0.3-2.6-0.1-3.3,0.6c-0.6,0.5-1.3,0.5-2-0.2c-0.5-0.5,0.2-1.6,2.2-3.1
			c1.7-1.1,3.6-1.5,5.8-1.1c2.9,0.6,4.6,2,5,4.2c0.6,2.4,0.8,4.7,0.5,6.9c-0.5,3.5-0.9,7.4-1.3,11.6c5.2-1.8,11.1-3.3,17.8-4.7
			c4.2-0.8,7.1-1.1,8.8-0.8c1.1,0.2,1.8,0.7,1.9,1.4c0.2,1.1-0.6,2.5-2.5,4.1c-2.3,1.8-3.8,2.3-4.4,1.6c-0.5-0.6-1.1-0.9-1.7-0.9
			c-1.5,0.1-5.1,0.8-10.8,2c-3.8,0.7-6.9,1.6-9.5,2.5c-0.2,2-0.4,4.1-0.5,6.3c-0.1,1.5-0.2,3-0.3,4.5c6-2.6,10.1-4,12-4.1
			c1.3-0.2,2.4,0,3.4,0.6c0.4,0.2,0.8,0.3,1.3,0.2c4,0.6,4.4,2.3,1.3,5.2c-2.3,2.4-4.8,4.6-7.7,6.6c-4.3,2.9-8,5.7-11.1,8.3
			c-0.3,3.4-0.7,6.5-1.1,9.1c4.7-1.9,8.6-3.3,11.9-4.4c1.9-0.6,5.2-2.1,10-4.4c0.7-0.4,1.6-0.3,2.5,0.3c1,0.7,1.6,1.6,1.6,2.7
			c0.1,0.8-0.2,1.3-0.9,1.4c-4.7,0.5-9.7,3.3-15.2,8.3c-7.2,5.7-15.2,13-23.9,21.7c0.3,0.6,0.3,1.3,0,2c-1.9,3.9-3.3,9.4-4.4,16.7
			c-0.8,5.9-1,14.4-0.6,25.3c0.1,2.9,0.6,4.4,1.6,4.5c1.9,0,3.6-0.8,5.3-2.5c2.9-2.9,5.8-6.1,8.8-9.7c6.6-7.8,11.6-14.4,15.2-19.7
			c-7.6-1.1-15.4-1.7-23.3-1.6c-2.1,0.1-3.2-0.5-3.3-1.7c-0.2-1.5,1.1-2.2,3.9-2.3c8.5-0.3,17,0.2,25.5,1.4c2.3-4.1,3.8-7.4,4.4-10
			c0.1-1,0.6-1.6,1.6-1.6c1.1,0,1.7,0.7,1.7,2c-0.2,2.6-1.5,6-3.8,10.2c10.6,1.7,20.8,4.6,30.6,8.8c6.5,2.8,10.2,5.1,11.1,6.7
			c0.6,0.9,1.1,1.6,1.6,1.9c1.5,1.5,2,3.2,1.6,5.2c-0.3,1.5-1.1,2-2.5,1.6c-1.1-0.3-3.2-0.4-6.1-0.3c-3.5,0-6.6-0.2-9.2-0.6
			c-1.5-0.6-2.1-1.3-2-2c0.1-0.6,0.8-0.9,2-0.8c6.4,0.4,10,0.1,10.9-0.9c0.5-1.3-3.9-3.8-13.3-7.5c-9-3.8-18-6.3-27.2-7.7
			c-6.7,10.5-13,19.1-18.9,25.6c-4.2,4.7-7.6,8-10.2,10c-1,0.8-2,1.1-3,0.8c-1.3-0.4-2.4-0.3-3.4,0.3c-1.1,0.6-2.2,0-3.1-1.9
			c-0.8-1.5-1.4-4.1-1.7-7.8c-0.3-5.8-0.1-13.3,0.6-22.3c0.4-5.4,1.1-10.2,2-14.4c-10.1,10.1-18.2,16.8-24.2,20
			c-5.7,2.9-9.3,4.3-10.6,4.2c-1.8-0.4-2.2-1.3-1.3-2.7c0.5-0.8,1-2.1,1.4-3.8c0.2-0.4,0.5-0.7,0.9-0.8c0.5-0.1,0.8,0.4,0.9,1.4
			c0.2,0.8,0.8,0.9,1.9,0.3c8.4-4.7,17.5-11.9,27.2-21.7c2.1-2.4,4.3-4.6,6.6-6.6c0.2-0.2,0.4-0.4,0.5-0.5
			c4.8-4.5,9.4-8.6,13.9-12.3c6.6-5.3,9.7-8.2,9.4-8.6c-0.6-0.3-2.6,0.2-5.8,1.6c-0.3,0.7-0.5,1.3-0.6,1.7c-0.7,0.9-1.5,1.4-2.2,1.4
			c-0.5-0.1-1-0.5-1.4-1.3c-2.8,1.1-6,2.7-9.5,4.7c-13.8,7.2-23.4,11.5-29.1,12.8C83.4,172.7,80,172.4,78.1,170.7z M169.5,151.5
			c0.9-0.3,1.8,0.2,2.5,1.6c0.6,1.3,0.3,3-0.9,5.3c-0.8,1.7-2.2,3.3-4.2,5c-2.2,1.8-6,4.1-11.4,7c-6.3,3.4-9.9,5.4-10.9,5.8
			c-4.5,2.5-7.5,4.1-9.1,4.8c-1.4,0.6-2.7,0.9-4.1,0.8c-1.4-0.4-2.4-1.1-3.1-2.2c-0.7-1.3-0.7-2.1,0-2.5c0.9-0.5,1.6-0.6,1.9-0.2
			c0.5,0.6,1,1,1.4,1.1c0.6,0,1.4-0.2,2.3-0.6c1.3-0.7,3.8-2.1,7.5-4.1c1.3-0.7,4.3-2.4,9.1-5c3.6-2,8.3-5,13.9-9.1
			c0.6-0.3,1.6-1.7,3-4.2C168,153,168.7,151.8,169.5,151.5z M133.2,134.6c8.3-6.1,12.3-9.5,11.9-10.2c-0.5-0.7-4.4,0.4-11.7,3.3
			C133.3,130.1,133.2,132.4,133.2,134.6z"/>
		<path fill="#FFFFFF" d="M231.8,152.9c-0.9-0.7-1.5-1.7-1.6-3c0-1.7,0.2-2.6,0.6-2.7c0.3-0.1,0.5-0.2,0.6-0.2c0.4-0.1,1.1,0.2,2.2,0.8
			c0.6,0.3,1.6,0.3,2.8,0c3-0.6,8.2-2.6,15.5-5.8c2.7-1.4,6-2.6,9.8-3.6c0.9-1.3,1.5-2.6,1.6-3.9c0.3-2.5,0.4-5.1,0.3-7.7
			c-0.6,0.3-1.1,0.5-1.6,0.6c-4.7,2.1-8.2,3.3-10.5,3.8c-2,0.4-3.6,0.1-5-0.9c-0.9-0.7-0.9-2,0.2-3.9c0.6-1.1,1.3-1.5,2-1.1
			c1.1,0.7,2.6,0.9,4.2,0.5c2.2-0.5,4.8-1.5,8-2.8c0.4-0.4,1.1-0.7,2.2-0.8c-0.4-2.6-0.9-5.2-1.6-7.8c-0.2-1.1,0.5-1.9,2.2-2.2
			c1.7-0.2,2.6,0.2,2.7,1.1c0.5,2.5,0.9,4.9,1.3,7.2c1.5-0.7,3.1-1.3,5-1.7c0.8-0.4,1.2-1,1.1-1.7c-0.1-0.6,0.2-1.1,0.9-1.6
			c0.8-0.3,2-0.4,3.6-0.3c1.4,0.1,2.9,0.2,4.5,0.2c1.3-0.1,1.7,0.4,1.3,1.4c-0.2,0.7-0.3,1.5-0.2,2.2c0.1,1-0.4,1.6-1.4,1.7
			c-1.1,0-3.5,0.7-7,2c-2.8,1-5.2,1.9-7.2,2.7c0.1,3,0.1,5.7,0,8c-0.3,1.1-0.5,2.2-0.6,3.3c3.2-0.9,6.8-1.9,10.6-2.8
			c4.1-0.8,6.9-1.1,8.6-0.8c1.1,0.2,1.8,0.7,1.9,1.4c0.3,1.1-0.5,2.5-2.3,4.1c-2.3,1.8-3.8,2.3-4.4,1.6c-0.6-0.5-1.1-0.8-1.6-0.8
			c-1.4,0-4.3,0.5-8.8,1.6c-3.2,0.7-5.8,1.5-7.8,2.2c-1.5,1-2.7,1.6-3.8,1.6h-1.1c-0.6,0.3-1.3,0.5-1.9,0.6c0.3,0.2,0.5,0.5,0.6,0.8
			c0.5,1.1,0.6,2.5,0.2,4.1c-0.2,1.4-1.3,3.2-3.1,5.5c-1.8,2.2-4.1,4.3-7,6.3c-2.7,1.9-7.2,5.3-13.4,10.3c-0.7,0.5-1.6,0.7-2.5,0.6
			c-0.2,0-0.5,0.1-0.9,0.2c-0.7,0.2-1.3,0.2-1.6-0.2c-0.4-0.3-0.6-0.7-0.6-1.1c0-0.6,0.4-1.1,1.1-1.6c13.5-10.5,20.9-16.5,22.2-17.8
			c1.6-2,2.1-3.5,1.7-4.5c-0.1-0.4-0.2-0.7-0.3-0.8c-7.7,3.1-13.3,5.2-16.9,6.3C234.5,153.8,232.8,153.7,231.8,152.9z M262.6,152
			c0.6-0.3,1.7-0.3,3.3,0c0.9,0.3,1.5,1,1.6,2c0.1,1.6,0.2,3.3,0.3,5.2c3-1.3,5.5-1.9,7.5-2c0.9,0.1,1.8,0.4,2.5,0.8
			c0.6,0.5,0.6,2,0,4.5c-0.5,1.9-3.4,4.7-8.8,8.4c-0.5,0.2-1,0.5-1.4,0.9c-0.3,2.3-0.5,4.6-0.6,6.9c2.6-1.8,5.2-3.5,7.8-5.2
			c2.3-1.5,4.4-3.2,6.4-5.2c0.6-0.6,1.1-0.9,1.6-0.8c0.6,0.2,1,0.7,1.1,1.4c0,0.7-0.5,1.7-1.6,3c-4.6,4.3-10.1,8.3-16.4,12
			c-5.4,3.1-10.1,5.3-13.9,6.6c-3.2,1.1-5.5,1.7-6.9,1.7c-1.1-0.1-1.9-0.4-2.2-0.8c-0.2-0.8-0.3-1.6-0.2-2.3c0.3-0.6,1.3-1.9,3-3.8
			c3.2-3.4,6.6-6.6,10-9.5c2.4-2.1,4.8-4,7.3-5.6c0.1-1.6,0.2-2.9,0.3-3.9c0-0.3-0.1-0.5-0.2-0.6c-0.9,0.5-1.9,1.1-3,1.7
			c-2.2,1.4-4.5,2.5-7,3.4c-2,0.7-3.5,1-4.5,0.9c-1.3-0.1-2.2-0.5-2.8-1.3c-0.7-0.8-0.9-1.6-0.6-2.3c0-0.2,0.5-0.3,1.4-0.3
			c1.4,0.1,2.7-0.1,4.1-0.5c2.7-1,5.7-2.5,8.9-4.4c1-0.7,2.2-1.3,3.4-1.7c-0.3-2.7-0.7-5.2-1.1-7.3
			C261.6,153.1,261.9,152.4,262.6,152z M266.6,96.4c-1-3.1-2.5-5.3-4.4-6.6c-0.8-0.7-1.2-1.6-1.1-2.7c0.3-1.3,1-1.9,2-2
			c1.1-0.1,2.1,0.2,2.8,0.9c2.1,1.5,3.6,3.8,4.7,7c0.5,1.1,0.8,2.4,0.9,3.8c2.5-0.8,4.1-1.5,4.8-1.9c0.7-0.5,1.5-0.6,2.2-0.2
			c0.6,0.5,0.8,1.3,0.5,2.3c-0.2,1-1,1.8-2.3,2.2c-2,0.6-3.5,1.1-4.5,1.6c0,0.7,0.1,1.5,0.2,2.2c0.1,1.7-0.2,3.1-0.9,4.4
			c-0.7,0.9-1.5,1.2-2.2,0.8c-0.7-0.5-1.1-1.6-1.1-3.1c-0.1-1.1-0.2-2.1-0.3-2.8c-4.1,1.1-6.9,1.9-8.4,2.3c-3,0.7-4.7,1.1-5.2,1.1
			c-0.4,0-0.8,0.2-1.3,0.6c-0.9,0.6-1.8,0.7-2.5,0.3c-0.9-0.5-1.9-1.8-2.8-3.8c-0.5-1.5-0.4-2.4,0.3-2.8c0.7-0.2,1.3-0.1,1.7,0.3
			c0.6,0.3,1.8,0.4,3.4,0.3c3.8-0.5,8.3-1.5,13.8-2.8C266.9,97.3,266.7,96.8,266.6,96.4z M325.6,193.7c1,0.4,1.6,1,1.6,1.7
			c0.1,1.1-0.8,2.4-2.8,3.8c-2.6,1.7-4.1,2-4.5,1.1c-0.4-0.7-0.9-1.1-1.6-1.1c-1.8-0.2-5.8,0.1-12.2,0.8c-6.4,0.6-11.8,1.5-16.3,2.5
			c-0.2,0.7-0.7,1.7-1.4,3c-1.5,2.3-4.9,5.4-10.3,9.2c-4.7,3.3-7.4,5.4-8.1,6.1c-0.9,1.1-1.4,1.9-1.3,2.3c0.3,0.8,5.8,0.3,16.4-1.6
			c5-1,13.8-3.3,26.4-6.9c-1.9-1.5-3.9-2.7-6.1-3.8c-1-0.7-1-1.8,0-3.1c0.9-1.1,1.8-1.5,2.5-1.1c7.1,4.1,12.1,7.9,15,11.4
			c2.5,2.8,3.8,5.4,3.9,7.7c0.2,2.6-0.2,4.4-1.3,5.5c-1,1.1-1.9,1.7-2.7,1.6c-0.5-0.1-0.7-0.9-0.6-2.5c0.4-3.1-0.2-5.7-1.9-7.7
			c-1.6-1.9-3.3-3.6-5.3-5.3c-0.5,0.5-1,0.8-1.4,0.9c-10.8,3.6-19.8,6-27,7c-8.4,1.6-13.9,2.4-16.4,2.5c-0.9,0-2.2,0.3-3.8,0.9
			c-1.7,0.7-3.3,0-5-2.2c-0.7-1.1-0.3-2.9,1.4-5.2c1.8-2.3,6-5.8,12.7-10.5c4.7-3.2,7.2-5.5,7.7-6.9h-0.3
			c-12.8,3.8-22.1,5.9-27.8,6.6c-2.4,0.1-4-0.2-4.7-0.9c-0.8-0.8-1.2-1.9-1.1-3.1c0.1-1.6,0.4-2.4,0.8-2.5c0.3-0.1,0.5-0.2,0.6-0.2
			c0.3,0,1,0.4,2,1.1c0.8,0.5,2.2,0.7,4.1,0.6c4.1-0.4,11.4-2.2,22-5.3c9-2.8,21.6-5.1,38-6.7C321,193.2,323.9,193.3,325.6,193.7z
			 M262.7,175.4c-3,2.3-6,4.7-8.9,7.3c-1.7,1.7-2.4,2.7-2.3,3c0.7,0.5,3.4-0.5,8.1-3c0.7-0.5,1.6-1,2.5-1.4
			C262.4,179.1,262.6,177.1,262.7,175.4z M267.7,166.8c3.1-2.4,4.5-3.8,4.2-4.1c-0.8-0.6-2.2-0.4-4.1,0.6
			C267.8,164.4,267.7,165.6,267.7,166.8z M289.5,180.9c8.3-2.8,13.5-4.3,15.5-4.4c1.3-0.1,2.4,0.2,3.4,0.8c0.3,0.4,0.7,0.6,1.1,0.5
			c3.8,0.8,4,2.6,0.8,5.2c-1.3,1.1-2.7,2.1-4.2,2.8c-11.4,6.9-18.6,10.4-21.9,10.5c-1.7,0.1-2.6-0.2-2.7-0.9
			c-0.1-0.8,0.4-1.4,1.4-1.7c3.8-1,8-3,12.8-5.9c5.5-3.1,8.2-4.9,8.1-5.3c-0.4-0.6-4.9,0.4-13.4,3c-9,3-15.1,4.4-18.3,4.1
			c-1.5-0.1-2-1.1-1.6-3c0.6-2.3,1.6-3.2,3-2.8C276.5,184.4,281.9,183.5,289.5,180.9z M272.6,147.1c0.1-1.6,0.7-2.3,1.7-2.2
			c4.8,0.5,8.5,1.4,11.1,2.7c2,0.9,3.3,2,3.9,3.3c0.7,1.5,0.9,2.6,0.6,3.3c-0.3,1.6-0.8,2.4-1.6,2.5c-0.7,0.1-1.3-0.5-1.7-1.9
			c-0.5-1.7-1.5-2.7-2.8-3.1c-2.5-1.1-5.8-1.8-10-1.9C272.7,149.7,272.3,148.8,272.6,147.1z M322.1,171.2c-2-2.6-2.7-6.1-2-10.6
			c0.7-6.4,2.1-13,4.1-20c1.4-5.2,2-8.3,2-9.4c-0.1-2.2-1-3.2-2.7-3.1c-0.7,0-2.2,0.3-4.4,0.9c-1,0.2-1.9,0.5-2.7,0.9
			c-0.8,3.6-2.2,8.3-4.1,14.1c-0.9,2.3-1.8,4.5-2.5,6.7c0.3-0.1,0.5-0.1,0.6,0c2.3,0.4,4,1.1,5,2.2c1.3,1.3,1.8,2.3,1.7,3.3
			c0.1,1.6-0.2,2.6-0.8,3c-0.5,0.3-1.3-0.2-2.2-1.4c-1-1.7-2.3-2.6-3.9-2.7c-0.7-0.2-1.5-0.3-2.2-0.2c-1.8,4-3.5,7.2-5.2,9.7
			c-3.2,4.3-6.1,6.9-8.8,8c-1,0.3-1.8,0.5-2.2,0.6c-1.1,0.4-2.3,0.3-3.6-0.3c-1.1-0.7-1.5-1.6-1.1-2.7c0.4-0.6,0.8-0.8,1.3-0.5
			c0.6,0.3,1.1,0.4,1.6,0.3c0.6-0.1,1.3-0.3,2-0.6c1.6-0.7,3.8-3,6.7-6.9c1.5-2.1,2.9-4.5,4.2-7.3c-1.6,0.1-3,0.4-4.4,0.8
			c-1.3,0.1-1.9-0.7-2-2.3c-0.2-1.6,0.2-2.4,1.1-2.5c2.7-0.6,5.2-0.9,7.3-0.8c0.9-2.4,1.9-5,3-7.8c1.5-4.3,2.6-7.8,3.3-10.6
			c-2.5,0.8-5,1.9-7.5,3.1c-4,1.8-6.3,2.7-6.9,2.7s-1.3-0.2-1.9-0.5c-1.6-0.8-2.2-1.9-1.9-3.3c0.2-0.7,0.8-1.3,1.7-1.7
			c0.9-0.4,1.8-0.3,2.5,0.3c0.8,0.4,3-0.2,6.4-1.7c2.8-1.5,5.7-2.7,8.6-3.6c0.2-1.1,0.4-2.1,0.5-2.8c0.1-2.6-0.1-4.3-0.5-5
			c-1.3-1.4-1.7-2.3-1.3-3c1.3-1.5,2.7-2,4.2-1.6c0.8,0.3,1.5,1.3,1.9,2.8c0.4,1.4,0.5,3.6,0.2,6.7c-0.1,0.2-0.2,0.5-0.2,0.9
			c0.8-0.5,1.7-0.8,2.7-0.9c2.7-0.8,5.2-1.2,7.3-1.1c1.3,0,2.3,0.5,3.3,1.6c0.8,0.8,1.2,2.7,1.1,5.5c0,2.1-0.8,5.5-2.5,10.3
			c-2.3,6.3-3.8,12.2-4.5,18c-0.6,4.4-0.3,7.4,0.9,9.1c2.2,2.5,6.4,3.8,12.7,3.9c4.9,0.2,9.6-0.1,14.1-0.8c3-0.6,4.7-1.5,5.2-2.5
			c0.3-1.1,0.3-2.9-0.2-5.2c-1.6-7.7-3.8-14.2-6.6-19.5c-0.5-1-0.5-1.8,0.2-2.2c0.6-0.4,1.3-0.1,2,0.9c4.1,6.5,7.1,13.2,9.1,20.2
			c0.9,3.1,1.2,5.8,0.8,8c-0.6,2.2-2.3,3.6-5.2,4.4c-8.1,1.7-15.1,2.3-20.8,1.9C329.6,176.3,324.6,174.4,322.1,171.2z M313.7,93.4
			c-0.7,1.5-1.5,2.9-2.2,4.2c-2.4,4.3-5.7,8.3-9.8,12.2c-2.8,2.7-5.6,4.3-8.4,4.7c-2.2,0.3-3.3-0.3-3.3-1.9c0-1.1,0.8-1.7,2.5-1.6
			c1,0,3-1.3,5.8-3.8c3.1-2.8,5.8-6.1,8-9.8c0.5-1.3,1.1-2.3,1.7-3.3c-2.9,0.4-6,1-9.2,1.7c-1.7,0.2-2.9,0-3.6-0.6
			c-0.8-0.7-1.1-1.9-0.8-3.4c0.4-1.9,1.1-2.4,2-1.7c0.8,0.6,1.9,0.9,3.1,0.8c4.2-1.3,7.7-1.9,10.6-2c0-0.2,0.1-0.4,0.2-0.5
			c0.5-2.3,0.6-3.6,0.3-4.1c-1-1.6-1-2.9,0-3.9c1.3-1.4,2.3-1.9,3.3-1.6s1.6,1.5,2,3.4c0.4,1.3,0.3,3.2-0.3,5.8h-0.2
			c0.6,0,1.1,0.1,1.6,0.2c2.2,0.1,4-0.2,5.3-0.8c1.3-0.4,3-0.1,5.3,0.9c1,0.5,1.2,1.6,0.5,3.1c-0.7,1.5-1.8,2.1-3.1,2
			c-2.8-0.6-6.4-0.7-10.8-0.3C313.9,93.2,313.8,93.3,313.7,93.4z"/>
		<path fill="#FFFFFF" d="M436.6,156.7c23.6,1.3,45.5,6.9,65.6,17c7.2,3.8,11.3,6.6,12.3,8.6c0.6,1.1,1.1,1.9,1.6,2.3c1.7,1.1,2.3,2.7,2,4.7
			c-0.2,1.4-1,2-2.3,1.9c-0.9-0.1-2.2,0-3.9,0.3c-2.5,0.5-4.6,0.7-6.3,0.6c-1.6-0.2-2.4-0.7-2.5-1.4c0-0.7,0.6-1.1,1.9-1.3
			c4-0.7,6.1-1.5,6.6-2.2c0.7-1.7-4.3-5.1-15-10.2c-19.6-9.8-40.7-15.4-63.3-16.7c-3.2,3.3-6.9,7.2-11.1,11.6
			c-7.5,7.4-14.1,13.3-19.7,17.8c-4.8,3.8-8.8,6.3-11.9,7.7c-1.4,0.5-2.4,0.6-3.1,0.2c-0.5-0.2-0.8-0.6-0.9-1.3
			c-0.1-0.4,0.3-0.8,1.3-1.3c5-2.7,10.7-6.9,17-12.7c6.3-5.6,10.4-9.6,12.3-11.9c2.8-2.9,5.5-5.7,8.1-8.3c4.1-3.9,8.6-9.3,13.6-16.3
			c6-8.3,11.5-15.5,16.3-21.6c4.8-5.8,7.7-9.8,8.8-12c0.8-1.6,1.3-2.6,1.4-3c0-0.5-0.2-0.8-0.6-0.9c-0.4-0.2-1-0.3-1.7-0.2
			c-0.5,0.1-1,0-1.4-0.3c-0.4-0.5-0.6-1.4-0.5-2.7c0-0.8,0.4-1.4,1.1-1.7c2.1-0.6,4.3-0.3,6.6,0.9c2.4,1,3.6,2,3.8,3
			c0,0.6-0.7,2-2,4.2c-2.3,3.8-6.1,8.9-11.4,15.5c-6.5,7.8-12,15.2-16.7,22C440.9,151.3,438.9,153.8,436.6,156.7z"/>
	</g>
</g>
<g transform="translate(320,300) scale(0.6)">
	<path fill="#FFFFFF" d="M109.1,163.7c-1.4-1.5-1.8-2.7-1.4-3.8c0.3-1,0.8-1.8,1.6-2.2c0.6-0.2,1.3,0.2,2,1.3c1.1,1.4,3.6,1.5,7.3,0.5
		c5.3-1.5,12.4-4.2,21.3-8.3c4.8-2.3,10.3-4.7,16.6-7.2c-0.2-0.9-0.3-1.8-0.3-2.5c-0.1-1-0.4-2.1-0.8-3.1
		c-9.7,6.5-16.6,10.1-20.6,10.8c-1.7,0.2-2.6-0.1-2.7-0.8c-0.2-0.8,0.2-1.4,1.1-1.7c7.7-3.1,16.3-8.2,25.8-15.2
		c0.1-2.4,0.3-5.4,0.6-8.9c-0.7,0.2-1.4,0.5-2,0.8c-11.3,5.2-19.1,7.8-23.6,7.8c-1.5,0-2-0.9-1.7-2.8c0.3-2.2,1.1-3.2,2.5-3.1
		c4.2,0.6,11.3-1.5,21.4-6.3c1.3-0.6,2.6-1.1,3.9-1.6c0.2-3.3,0.5-7.1,0.8-11.3c-2.5,0.8-4.6,1.6-6.3,2.3
		c-11.1,4.9-19.3,7.9-24.4,8.9c-2.3,0.5-3.9,0.4-4.8-0.3c-0.9-0.7-1.5-1.7-1.6-3c0.1-1.7,0.3-2.6,0.6-2.7c0.3-0.1,0.5-0.2,0.6-0.2
		c0.4-0.1,1.1,0.2,2.2,0.8c0.7,0.4,1.9,0.5,3.6,0.2c3.9-0.9,10.4-3.3,19.5-7.2c3-1.5,6.6-2.8,10.8-4.1c0.3-4.5,0.6-9.4,0.9-14.7
		c0.1-1.7-0.1-3-0.5-4.1c-0.3-0.9-1.1-1.5-2.5-1.6c-1.5-0.3-2.6-0.1-3.3,0.6c-0.6,0.5-1.3,0.5-2-0.2c-0.5-0.5,0.2-1.6,2.2-3.1
		c1.7-1.1,3.6-1.5,5.8-1.1c2.9,0.6,4.6,2,5,4.2c0.6,2.4,0.8,4.7,0.5,6.9c-0.5,3.5-0.9,7.4-1.3,11.6c5.2-1.8,11.1-3.3,17.8-4.7
		c4.2-0.8,7.1-1.1,8.8-0.8c1.1,0.2,1.8,0.7,1.9,1.4c0.2,1.1-0.6,2.5-2.5,4.1c-2.3,1.8-3.8,2.3-4.4,1.6c-0.5-0.6-1.1-0.9-1.7-0.9
		c-1.5,0.1-5.1,0.8-10.8,2c-3.8,0.7-6.9,1.6-9.5,2.5c-0.2,2-0.4,4.1-0.5,6.3c-0.1,1.5-0.2,3-0.3,4.5c6-2.6,10.1-4,12-4.1
		c1.3-0.2,2.4,0,3.4,0.6c0.4,0.2,0.8,0.3,1.3,0.2c4,0.6,4.4,2.3,1.3,5.2c-2.3,2.4-4.8,4.6-7.7,6.6c-4.3,2.9-8,5.7-11.1,8.3
		c-0.3,3.4-0.7,6.5-1.1,9.1c4.7-1.9,8.6-3.3,11.9-4.4c1.9-0.6,5.2-2.1,10-4.4c0.7-0.4,1.6-0.3,2.5,0.3c1,0.7,1.6,1.6,1.6,2.7
		c0.1,0.8-0.2,1.3-0.9,1.4c-4.7,0.5-9.7,3.3-15.2,8.3c-7.2,5.7-15.2,13-23.9,21.7c0.3,0.6,0.3,1.3,0,2c-1.9,3.9-3.3,9.4-4.4,16.7
		c-0.8,5.9-1,14.4-0.6,25.3c0.1,2.9,0.6,4.4,1.6,4.5c1.9,0,3.6-0.8,5.3-2.5c2.9-2.9,5.8-6.1,8.8-9.7c6.6-7.8,11.6-14.4,15.2-19.7
		c-7.6-1.1-15.4-1.7-23.3-1.6c-2.1,0.1-3.2-0.5-3.3-1.7c-0.2-1.5,1.1-2.2,3.9-2.3c8.5-0.3,17,0.2,25.5,1.4c2.3-4.1,3.8-7.4,4.4-10
		c0.1-1,0.6-1.6,1.6-1.6c1.1,0,1.7,0.7,1.7,2c-0.2,2.6-1.5,6-3.8,10.2c10.6,1.7,20.8,4.6,30.6,8.8c6.5,2.8,10.2,5.1,11.1,6.7
		c0.6,0.9,1.1,1.6,1.6,1.9c1.5,1.5,2,3.2,1.6,5.2c-0.3,1.5-1.1,2-2.5,1.6c-1.1-0.3-3.2-0.4-6.1-0.3c-3.5,0-6.6-0.2-9.2-0.6
		c-1.5-0.6-2.1-1.3-2-2c0.1-0.6,0.8-0.9,2-0.8c6.4,0.4,10,0.1,10.9-0.9c0.5-1.3-3.9-3.8-13.3-7.5c-9-3.8-18-6.3-27.2-7.7
		c-6.7,10.5-13,19.1-18.9,25.6c-4.2,4.7-7.6,8-10.2,10c-1,0.8-2,1.1-3,0.8c-1.3-0.4-2.4-0.3-3.4,0.3c-1.1,0.6-2.2,0-3.1-1.9
		c-0.8-1.5-1.4-4.1-1.7-7.8c-0.3-5.8-0.1-13.3,0.6-22.3c0.4-5.4,1.1-10.2,2-14.4c-10.1,10.1-18.2,16.8-24.2,20
		c-5.7,2.9-9.3,4.3-10.6,4.2c-1.8-0.4-2.2-1.3-1.3-2.7c0.5-0.8,1-2.1,1.4-3.8c0.2-0.4,0.5-0.7,0.9-0.8c0.5-0.1,0.8,0.4,0.9,1.4
		c0.2,0.8,0.8,0.9,1.9,0.3c8.4-4.7,17.5-11.9,27.2-21.7c2.1-2.4,4.3-4.6,6.6-6.6c0.2-0.2,0.4-0.4,0.5-0.5c4.8-4.5,9.4-8.6,13.9-12.3
		c6.6-5.3,9.7-8.2,9.4-8.6c-0.6-0.3-2.6,0.2-5.8,1.6c-0.3,0.7-0.5,1.3-0.6,1.7c-0.7,0.9-1.5,1.4-2.2,1.4c-0.5-0.1-1-0.5-1.4-1.3
		c-2.8,1.1-6,2.7-9.5,4.7c-13.8,7.2-23.4,11.5-29.1,12.8C114.4,165.7,111,165.4,109.1,163.7z M200.5,144.5c0.9-0.3,1.8,0.2,2.5,1.6
		c0.6,1.3,0.3,3-0.9,5.3c-0.8,1.7-2.2,3.3-4.2,5c-2.2,1.8-6,4.1-11.4,7c-6.3,3.4-9.9,5.4-10.9,5.8c-4.5,2.5-7.5,4.1-9.1,4.8
		c-1.4,0.6-2.7,0.9-4.1,0.8c-1.4-0.4-2.4-1.1-3.1-2.2c-0.7-1.3-0.7-2.1,0-2.5c0.9-0.5,1.6-0.6,1.9-0.2c0.5,0.6,1,1,1.4,1.1
		c0.6,0,1.4-0.2,2.3-0.6c1.3-0.7,3.8-2.1,7.5-4.1c1.3-0.7,4.3-2.4,9.1-5c3.6-2,8.3-5,13.9-9.1c0.6-0.3,1.6-1.7,3-4.2
		C199,146,199.7,144.8,200.5,144.5z M164.2,127.6c8.3-6.1,12.3-9.5,11.9-10.2c-0.5-0.7-4.4,0.4-11.7,3.3
		C164.3,123,164.2,125.3,164.2,127.6z"/>
	<path fill="#FFFFFF" d="M270,138.1c1.3,1.1,2.1,2.7,2.5,4.7c0.1,1.8-0.4,5.2-1.4,10.2c-1.7,7.5-2.9,15-3.6,22.5c-0.7,7.8-0.6,13.4,0.3,16.9
		c3.3-4.3,6.3-8.8,8.8-13.6c3-5.5,5.7-11.9,8-19.2c0.3-0.8,0.8-1.2,1.6-1.1c0.5,0.2,0.7,0.8,0.6,1.7c-1.4,6.4-3.6,13.2-6.7,20.5
		c-3,6.9-5.7,12-8,15.5c-1.5,2.3-2.4,3.9-2.8,4.8c-0.4,0.6-1,1.4-1.7,2.3c-0.5,0.7-1.1,1-1.9,0.9c-0.7-0.1-1.1-0.7-1.3-1.7
		c-0.9-3.1-1.6-6.7-2-10.8c-0.3-4.1,0.1-10.2,1.1-18.4c1-8,2.1-14.7,3.1-20.2c1.1-4.4,1.6-7.6,1.3-9.5c-1.4-3.2-5.6-5.2-12.8-5.9
		c-0.8-0.2-1.2-1.1-1.1-2.8c0.2-1.6,0.9-2.3,2.2-2.2C262.2,133.5,266.9,135.3,270,138.1z M285.6,101.8c3.3,2.3,5.9,4.5,7.8,6.7
		c1.5,2,1.5,3.8,0.2,5.5c-2.3,2.9-4.9,5.2-7.8,6.7c-1.5,0.5-2.8,0.3-4.1-0.8c-0.9-0.9-0.9-1.6,0.2-1.9c1.9-0.8,4-2.1,6.3-3.8
		c0.7-0.5,1.1-1.3,1.1-2.2c0-0.8-0.3-1.6-0.9-2.3c-2.2-1.9-4.6-3.6-7.2-5.2c-2.1-1.3-4.1-2.2-6.1-2.8c-0.3-0.1-0.8-0.1-1.6,0
		c-0.7,0.3-1.3-0.8-1.6-3.3c-0.2-1.9,0.7-2.5,2.7-1.9C278.5,97.8,282.2,99.6,285.6,101.8z M296.3,194.7c0.7-0.4,1.6-0.4,2.5,0
		c0.7,0.5,1.1,1.1,1.3,1.9c0.9,4.8,2.3,7.7,4.2,8.8c2.4,1.4,5,1.9,7.8,1.6c3.1-0.5,5.9-1.3,8.4-2.3c2.7-1.3,5.7-2,8.9-2.3
		c1.7-0.1,2.6,0.5,2.7,1.9c0.1,1.1-0.5,1.8-1.7,1.9c-3.6,0.4-6.3,1.1-8,2c-3.4,1.8-7.2,2.7-11.4,2.8c-3.3,0.3-6.1-0.2-8.4-1.6
		c-3.3-1.6-5.8-5.6-7.3-12.2C295.2,196.2,295.5,195.4,296.3,194.7z M310.5,100.6c0.6,0.1,1,0.6,1.1,1.6c0.3,1.3,0.2,2.3-0.5,3.3
		c-1.6,2.7-2.8,5.2-3.8,7.5c0.4,0.2,1,0.5,1.7,0.9c1.7,0,7.7-2.3,18-7c2.7-1.5,5.5-2.7,8.4-3.6h-0.3c-1.7,0.1-2.9-0.6-3.6-2.2
		c-0.5-1.1-0.3-1.7,0.8-1.7c1.6,0.1,3.5-0.2,5.8-0.8c0.7-0.2,1.1-0.7,1.3-1.4c0.1-0.6-0.1-1.3-0.5-1.9c-2.3-2.4-4.9-4.6-7.8-6.6
		c-2.4-1.8-4.7-3-6.9-3.8c-0.3-0.1-0.8-0.1-1.6,0c-0.7,0.2-1.1-0.9-1.3-3.4c-0.2-1.9,0.7-2.4,2.7-1.7c4.4,1.6,8.3,3.8,11.9,6.6
		c3.6,2.7,6.4,5.4,8.3,8c1.1,2.3,0.9,4.3-0.8,5.9c-0.4,0.2-0.7,0.4-0.8,0.5c4.4-1.6,8.4-2.6,12.2-3c6-1,10.8-0.9,14.4,0.3
		c3.8,1.3,6.1,2.9,7.2,4.8c2.3,3,2.4,5.5,0.5,7.5c-3.2,3.2-8.9,6.5-17,9.7c-2.1,0.8-3.3,0.9-3.8,0.2c-0.2-0.6,0.5-1.4,2.2-2.3
		c9.3-5.8,13.9-9.7,13.8-11.7c0.1-1.3-1.1-2.4-3.8-3.4c-2.5-0.9-6.7-1-12.7-0.3c-7.3,0.9-16.6,4-28,9.1c-10.8,4.9-17.4,7.4-19.7,7.5
		c-1-0.4-1.8-0.8-2.2-1.3c-0.5,1.5-0.8,2.9-0.8,4.2c-0.1,2.9,0.2,4.4,0.9,4.5c1.5,0.3,1.8,0.8,1.1,1.4c-0.6,0.6-0.9,1.3-0.8,2
		c0,0.7-0.7,1-2,0.9c-1-0.1-1.9-0.6-2.7-1.6c-1.4-1.6-1.6-4.8-0.6-9.8c1-5.4,3.3-11.1,6.9-17C308.9,101.1,309.7,100.5,310.5,100.6z
		 M301.1,146.2c0.6-0.3,1.3-0.3,2,0.2c1,0.7,1.7,1.6,2,2.7c0.3,0.6,0.5,1.3,0.6,2c3.3-1,9.1-3.5,17.2-7.3c3.3-1.7,6.8-3,10.3-4.1
		c0.2-3.8,0.3-5.8,0.2-6.3c-0.6-1.6-1.6-2.9-3-3.9c-0.5-0.4-0.8-0.8-0.9-1.3c-2.8,1-5.8,2.2-8.9,3.6c-1.7,0.6-2.9,0.6-3.6,0
		c-0.9-0.5-1.4-1.6-1.4-3.1c0.1-2,0.7-2.7,1.7-2c1,0.4,2.1,0.5,3.1,0.2c8.8-4,15.3-6.3,19.7-6.9c2.7-0.3,4.7-0.9,6.1-1.9
		c1.4-0.8,3.4-0.9,6.3-0.2c1.1,0.3,1.5,1.3,1.1,3c-0.5,1.7-1.5,2.6-2.8,2.7c-3.3-0.1-7.5,0.5-12.5,1.9c-0.9,0.2-1.9,0.5-2.8,0.9
		c0.7,0.6,1.4,1.6,2,3c0.3,0.8,0.5,3.8,0.5,8.9c3.1-1,6.4-1.8,9.8-2.2c7.4-1,13.3-1.5,17.8-1.4c3.8,0.1,6.6,1,8.6,2.7
		c1.9,3.2,2.6,6.5,2.2,9.7c-0.3,2.5-2.2,6.6-5.8,12.3c-4.1,6.9-8.1,12.4-12.2,16.6c-1.5,1.5-3.1,2.3-5,2.7c-1.7,0.2-2.4-0.8-2.3-3
		c-7.7,3-16.7,4.6-27,4.7c-0.3-0.1-0.5-0.1-0.6,0c-0.7,0.1-1.4,0.2-2,0.2c-3-0.2-6.5-3-10.3-8.4c-4.4-6.1-7.8-13.6-10.3-22.5
		C300.6,147.7,300.7,146.6,301.1,146.2z M316.7,171.8c2.8,3,4.7,4.2,5.8,3.4c0.3-0.3,0.7-0.5,1.1-0.5c2.1-2.8,5.2-5.7,9.2-8.6
		c0-3.4,0-6.5,0-9.1c-5.4,2.1-9.4,4.1-12,5.9c-0.6,0.5-1.1,0.7-1.6,0.6c-0.4-0.2-0.8-0.8-1.1-1.9c-0.1-1.3,0.2-2.1,0.9-2.5
		c5.1-2.9,9.8-5.2,14.1-6.9c0-2.6,0-5.3,0-8.1c-3.8,1.3-7.2,2.7-10.5,4.4c-5.2,2.8-10.2,5.2-15,7.2
		C310.5,163,313.5,168.3,316.7,171.8z M332.5,170.9c-3.3,2.5-4.8,4.1-4.5,4.7c0.3,0.3,1.9,0.4,4.7,0.3
		C332.6,174.2,332.5,172.6,332.5,170.9z M347.8,140.9c-3.9,0.5-7.2,1.3-10.2,2.2c0,0.2,0,0.5,0,0.9c0,2.2,0,4.4,0,6.7
		c2.4-1,4.6-1.6,6.6-1.7c2.5-0.2,4.3,0.2,5.3,1.3c1.1,1.8,1.5,3.3,1.1,4.7c-0.9,2.5-5,6.3-12.2,11.4c-0.3,0.2-0.5,0.4-0.6,0.5
		c0.1,2.7,0.2,5.5,0.3,8.3c4.5-1.1,9-2.8,13.4-5c0.7-0.4,1.4-0.6,2-0.5c0.8,0.3,1.3,1.1,1.3,2.5c0,0.3-0.1,0.5-0.2,0.6
		c0.3-0.1,0.5-0.2,0.6-0.3c2.3-2.1,5.4-6.4,9.2-13c4.4-7.2,6.6-12,6.7-14.5c0.1-1-0.2-2.2-0.8-3.6c-1.4-1-3.1-1.6-5.3-1.7
		C360.5,139.5,354.7,139.9,347.8,140.9z M337.8,162.2c1.5-1,2.9-2,4.2-3c3.3-2.5,4.6-4.3,3.9-5.3c-0.7-0.8-3.4-0.3-8.1,1.6
		C337.8,157.6,337.8,159.9,337.8,162.2z M370.9,194.5c2.9,3.2,5.2,8.6,6.9,16.3c0.7,2.9,0.4,4.7-0.9,5.5c-1,0.4-1.9,0.3-2.7-0.5
		c-0.6-0.4-2.7-0.9-6.1-1.6c-1.3-0.2-2.2-1-2.8-2.3c-0.4-0.9,0-1.3,1.3-0.9c2.8,0.4,4.4,0.4,4.8,0c0.9-0.7,0.1-3.9-2.5-9.5
		c-2-4.4-5.5-8-10.6-10.8c-1.1-0.6-1.7-1.5-1.6-2.5c0.1-0.6,0.9-0.7,2.5-0.3C364.7,189.7,368.7,191.9,370.9,194.5z"/>
	<path fill="#FFFFFF" d="M422.8,145.9c-0.9-0.7-1.5-1.7-1.6-3c0-1.7,0.2-2.6,0.6-2.7c0.3-0.1,0.5-0.2,0.6-0.2c0.4-0.1,1.1,0.2,2.2,0.8
		c0.6,0.3,1.6,0.3,2.8,0c3-0.6,8.2-2.6,15.5-5.8c2.7-1.4,6-2.6,9.8-3.6c0.9-1.3,1.5-2.6,1.6-3.9c0.3-2.5,0.4-5.1,0.3-7.7
		c-0.6,0.3-1.1,0.5-1.6,0.6c-4.7,2.1-8.2,3.3-10.5,3.8c-2,0.4-3.6,0.1-5-0.9c-0.9-0.7-0.9-2,0.2-3.9c0.6-1.1,1.3-1.5,2-1.1
		c1.1,0.7,2.6,0.9,4.2,0.5c2.2-0.5,4.8-1.5,8-2.8c0.4-0.4,1.1-0.7,2.2-0.8c-0.4-2.6-0.9-5.2-1.6-7.8c-0.2-1.1,0.5-1.9,2.2-2.2
		c1.7-0.2,2.6,0.2,2.7,1.1c0.5,2.5,0.9,4.9,1.3,7.2c1.5-0.7,3.1-1.3,5-1.7c0.8-0.4,1.2-1,1.1-1.7c-0.1-0.6,0.2-1.1,0.9-1.6
		c0.8-0.3,2-0.4,3.6-0.3c1.4,0.1,2.9,0.2,4.5,0.2c1.3-0.1,1.7,0.4,1.3,1.4c-0.2,0.7-0.3,1.5-0.2,2.2c0.1,1-0.4,1.6-1.4,1.7
		c-1.1,0-3.5,0.7-7,2c-2.8,1-5.2,1.9-7.2,2.7c0.1,3,0.1,5.7,0,8c-0.3,1.1-0.5,2.2-0.6,3.3c3.2-0.9,6.8-1.9,10.6-2.8
		c4.1-0.8,6.9-1.1,8.6-0.8c1.1,0.2,1.8,0.7,1.9,1.4c0.3,1.1-0.5,2.5-2.3,4.1c-2.3,1.8-3.8,2.3-4.4,1.6c-0.6-0.5-1.1-0.8-1.6-0.8
		c-1.4,0-4.3,0.5-8.8,1.6c-3.2,0.7-5.8,1.5-7.8,2.2c-1.5,1-2.7,1.6-3.8,1.6h-1.1c-0.6,0.3-1.3,0.5-1.9,0.6c0.3,0.2,0.5,0.5,0.6,0.8
		c0.5,1.1,0.6,2.5,0.2,4.1c-0.2,1.4-1.3,3.2-3.1,5.5c-1.8,2.2-4.1,4.3-7,6.3c-2.7,1.9-7.2,5.3-13.4,10.3c-0.7,0.5-1.6,0.7-2.5,0.6
		c-0.2,0-0.5,0.1-0.9,0.2c-0.7,0.2-1.3,0.2-1.6-0.2c-0.4-0.3-0.6-0.7-0.6-1.1c0-0.6,0.4-1.1,1.1-1.6c13.5-10.5,20.9-16.5,22.2-17.8
		c1.6-2,2.1-3.5,1.7-4.5c-0.1-0.4-0.2-0.7-0.3-0.8c-7.7,3.1-13.3,5.2-16.9,6.3C425.5,146.7,423.9,146.6,422.8,145.9z M453.6,145
		c0.6-0.3,1.7-0.3,3.3,0c0.9,0.3,1.5,1,1.6,2c0.1,1.6,0.2,3.3,0.3,5.2c3-1.3,5.5-1.9,7.5-2c0.9,0.1,1.8,0.4,2.5,0.8
		c0.6,0.5,0.6,2,0,4.5c-0.5,1.9-3.4,4.7-8.8,8.4c-0.5,0.2-1,0.5-1.4,0.9c-0.3,2.3-0.5,4.6-0.6,6.9c2.6-1.8,5.2-3.5,7.8-5.2
		c2.3-1.5,4.4-3.2,6.4-5.2c0.6-0.6,1.1-0.9,1.6-0.8c0.6,0.2,1,0.7,1.1,1.4c0,0.7-0.5,1.7-1.6,3c-4.6,4.3-10.1,8.3-16.4,12
		c-5.4,3.1-10.1,5.3-13.9,6.6c-3.2,1.1-5.5,1.7-6.9,1.7c-1.1-0.1-1.9-0.4-2.2-0.8c-0.2-0.8-0.3-1.6-0.2-2.3c0.3-0.6,1.3-1.9,3-3.8
		c3.2-3.4,6.6-6.6,10-9.5c2.4-2.1,4.8-4,7.3-5.6c0.1-1.6,0.2-2.9,0.3-3.9c0-0.3-0.1-0.5-0.2-0.6c-0.9,0.5-1.9,1.1-3,1.7
		c-2.2,1.4-4.5,2.5-7,3.4c-2,0.7-3.5,1-4.5,0.9c-1.3-0.1-2.2-0.5-2.8-1.3c-0.7-0.8-0.9-1.6-0.6-2.3c0-0.2,0.5-0.3,1.4-0.3
		c1.4,0.1,2.7-0.1,4.1-0.5c2.7-1,5.7-2.5,8.9-4.4c1-0.7,2.2-1.3,3.4-1.7c-0.3-2.7-0.7-5.2-1.1-7.3
		C452.7,146.1,452.9,145.4,453.6,145z M457.7,89.3c-1-3.1-2.5-5.3-4.4-6.6c-0.8-0.7-1.2-1.6-1.1-2.7c0.3-1.3,1-1.9,2-2
		c1.1-0.1,2.1,0.2,2.8,0.9c2.1,1.5,3.6,3.8,4.7,7c0.5,1.1,0.8,2.4,0.9,3.8c2.5-0.8,4.1-1.5,4.8-1.9c0.7-0.5,1.5-0.6,2.2-0.2
		c0.6,0.5,0.8,1.3,0.5,2.3c-0.2,1-1,1.8-2.3,2.2c-2,0.6-3.5,1.1-4.5,1.6c0,0.7,0.1,1.5,0.2,2.2c0.1,1.7-0.2,3.1-0.9,4.4
		c-0.7,0.9-1.5,1.2-2.2,0.8c-0.7-0.5-1.1-1.6-1.1-3.1c-0.1-1.1-0.2-2.1-0.3-2.8c-4.1,1.1-6.9,1.9-8.4,2.3c-3,0.7-4.7,1.1-5.2,1.1
		c-0.4,0-0.8,0.2-1.3,0.6c-0.9,0.6-1.8,0.7-2.5,0.3c-0.9-0.5-1.9-1.8-2.8-3.8c-0.5-1.5-0.4-2.4,0.3-2.8c0.7-0.2,1.3-0.1,1.7,0.3
		c0.6,0.3,1.8,0.4,3.4,0.3c3.8-0.5,8.3-1.5,13.8-2.8C457.9,90.3,457.8,89.8,457.7,89.3z M516.6,186.7c1,0.4,1.6,1,1.6,1.7
		c0.1,1.1-0.8,2.4-2.8,3.8c-2.6,1.7-4.1,2-4.5,1.1c-0.4-0.7-0.9-1.1-1.6-1.1c-1.8-0.2-5.8,0.1-12.2,0.8c-6.4,0.6-11.8,1.5-16.3,2.5
		c-0.2,0.7-0.7,1.7-1.4,3c-1.5,2.3-4.9,5.4-10.3,9.2c-4.7,3.3-7.4,5.4-8.1,6.1c-0.9,1.1-1.4,1.9-1.3,2.3c0.3,0.8,5.8,0.3,16.4-1.6
		c5-1,13.8-3.3,26.4-6.9c-1.9-1.5-3.9-2.7-6.1-3.8c-1-0.7-1-1.8,0-3.1c0.9-1.1,1.8-1.5,2.5-1.1c7.1,4.1,12.1,7.9,15,11.4
		c2.5,2.8,3.8,5.4,3.9,7.7c0.2,2.6-0.2,4.4-1.3,5.5c-1,1.1-1.9,1.7-2.7,1.6c-0.5-0.1-0.7-0.9-0.6-2.5c0.4-3.1-0.2-5.7-1.9-7.7
		c-1.6-1.9-3.3-3.6-5.3-5.3c-0.5,0.5-1,0.8-1.4,0.9c-10.8,3.6-19.8,6-27,7c-8.4,1.6-13.9,2.4-16.4,2.5c-0.9,0-2.2,0.3-3.8,0.9
		c-1.7,0.7-3.3,0-5-2.2c-0.7-1.1-0.3-2.9,1.4-5.2c1.8-2.3,6-5.8,12.7-10.5c4.7-3.2,7.2-5.5,7.7-6.9h-0.3
		c-12.8,3.8-22.1,5.9-27.8,6.6c-2.4,0.1-4-0.2-4.7-0.9c-0.8-0.8-1.2-1.9-1.1-3.1c0.1-1.6,0.4-2.4,0.8-2.5c0.3-0.1,0.5-0.2,0.6-0.2
		c0.3,0,1,0.4,2,1.1c0.8,0.5,2.2,0.7,4.1,0.6c4.1-0.4,11.4-2.2,22-5.3c9-2.8,21.6-5.1,38-6.7C512,186.2,514.9,186.3,516.6,186.7z
		 M453.8,168.4c-3,2.3-6,4.7-8.9,7.3c-1.7,1.7-2.4,2.7-2.3,3c0.7,0.5,3.4-0.5,8.1-3c0.7-0.5,1.6-1,2.5-1.4
		C453.4,172.1,453.7,170.1,453.8,168.4z M458.8,159.8c3.1-2.4,4.5-3.8,4.2-4.1c-0.8-0.6-2.2-0.4-4.1,0.6
		C458.8,157.4,458.8,158.6,458.8,159.8z M480.5,173.9c8.3-2.8,13.5-4.3,15.5-4.4c1.3-0.1,2.4,0.2,3.4,0.8c0.3,0.4,0.7,0.6,1.1,0.5
		c3.8,0.8,4,2.6,0.8,5.2c-1.3,1.1-2.7,2.1-4.2,2.8c-11.4,6.9-18.6,10.4-21.9,10.5c-1.7,0.1-2.6-0.2-2.7-0.9
		c-0.1-0.8,0.4-1.4,1.4-1.7c3.8-1,8-3,12.8-5.9c5.5-3.1,8.2-4.9,8.1-5.3c-0.4-0.6-4.9,0.4-13.4,3c-9,3-15.1,4.4-18.3,4.1
		c-1.5-0.1-2-1.1-1.6-3c0.6-2.3,1.6-3.2,3-2.8C467.6,177.4,472.9,176.5,480.5,173.9z M463.6,140.1c0.1-1.6,0.7-2.3,1.7-2.2
		c4.8,0.5,8.5,1.4,11.1,2.7c2,0.9,3.3,2,3.9,3.3c0.7,1.5,0.9,2.6,0.6,3.3c-0.3,1.6-0.8,2.4-1.6,2.5c-0.7,0.1-1.3-0.5-1.7-1.9
		c-0.5-1.7-1.5-2.7-2.8-3.1c-2.5-1.1-5.8-1.8-10-1.9C463.7,142.7,463.3,141.8,463.6,140.1z M513.1,164.2c-2-2.6-2.7-6.1-2-10.6
		c0.7-6.4,2.1-13,4.1-20c1.4-5.2,2-8.3,2-9.4c-0.1-2.2-1-3.2-2.7-3.1c-0.7,0-2.2,0.3-4.4,0.9c-1,0.2-1.9,0.5-2.7,0.9
		c-0.8,3.6-2.2,8.3-4.1,14.1c-0.9,2.3-1.8,4.5-2.5,6.7c0.3-0.1,0.5-0.1,0.6,0c2.3,0.4,4,1.1,5,2.2c1.3,1.3,1.8,2.3,1.7,3.3
		c0.1,1.6-0.2,2.6-0.8,3c-0.5,0.3-1.3-0.2-2.2-1.4c-1-1.7-2.3-2.6-3.9-2.7c-0.7-0.2-1.5-0.3-2.2-0.2c-1.8,4-3.5,7.2-5.2,9.7
		c-3.2,4.3-6.1,6.9-8.8,8c-1,0.3-1.8,0.5-2.2,0.6c-1.1,0.4-2.3,0.3-3.6-0.3c-1.1-0.7-1.5-1.6-1.1-2.7c0.4-0.6,0.8-0.8,1.3-0.5
		c0.6,0.3,1.1,0.4,1.6,0.3c0.6-0.1,1.3-0.3,2-0.6c1.6-0.7,3.8-3,6.7-6.9c1.5-2.1,2.9-4.5,4.2-7.3c-1.6,0.1-3,0.4-4.4,0.8
		c-1.3,0.1-1.9-0.7-2-2.3c-0.2-1.6,0.2-2.4,1.1-2.5c2.7-0.6,5.2-0.9,7.3-0.8c0.9-2.4,1.9-5,3-7.8c1.5-4.3,2.6-7.8,3.3-10.6
		c-2.5,0.8-5,1.9-7.5,3.1c-4,1.8-6.3,2.7-6.9,2.7s-1.3-0.2-1.9-0.5c-1.6-0.8-2.2-1.9-1.9-3.3c0.2-0.7,0.8-1.3,1.7-1.7
		c0.9-0.4,1.8-0.3,2.5,0.3c0.8,0.4,3-0.2,6.4-1.7c2.8-1.5,5.7-2.7,8.6-3.6c0.2-1.1,0.4-2.1,0.5-2.8c0.1-2.6-0.1-4.3-0.5-5
		c-1.3-1.4-1.7-2.3-1.3-3c1.3-1.5,2.7-2,4.2-1.6c0.8,0.3,1.5,1.3,1.9,2.8c0.4,1.4,0.5,3.6,0.2,6.7c-0.1,0.2-0.2,0.5-0.2,0.9
		c0.8-0.5,1.7-0.8,2.7-0.9c2.7-0.8,5.2-1.2,7.3-1.1c1.3,0,2.3,0.5,3.3,1.6c0.8,0.8,1.2,2.7,1.1,5.5c0,2.1-0.8,5.5-2.5,10.3
		c-2.3,6.3-3.8,12.2-4.5,18c-0.6,4.4-0.3,7.4,0.9,9.1c2.2,2.5,6.4,3.8,12.7,3.9c4.9,0.2,9.6-0.1,14.1-0.8c3-0.6,4.7-1.5,5.2-2.5
		c0.3-1.1,0.3-2.9-0.2-5.2c-1.6-7.7-3.8-14.2-6.6-19.5c-0.5-1-0.5-1.8,0.2-2.2c0.6-0.4,1.3-0.1,2,0.9c4.1,6.5,7.1,13.2,9.1,20.2
		c0.9,3.1,1.2,5.8,0.8,8c-0.6,2.2-2.3,3.6-5.2,4.4c-8.1,1.7-15.1,2.3-20.8,1.9C520.6,169.3,515.6,167.4,513.1,164.2z M504.7,86.4
		c-0.7,1.5-1.5,2.9-2.2,4.2c-2.4,4.3-5.7,8.3-9.8,12.2c-2.8,2.7-5.6,4.3-8.4,4.7c-2.2,0.3-3.3-0.3-3.3-1.9c0-1.1,0.8-1.7,2.5-1.6
		c1,0,3-1.3,5.8-3.8c3.1-2.8,5.8-6.1,8-9.8c0.5-1.3,1.1-2.3,1.7-3.3c-2.9,0.4-6,1-9.2,1.7c-1.7,0.2-2.9,0-3.6-0.6
		c-0.8-0.7-1.1-1.9-0.8-3.4c0.4-1.9,1.1-2.4,2-1.7c0.8,0.6,1.9,0.9,3.1,0.8c4.2-1.3,7.7-1.9,10.6-2c0-0.2,0.1-0.4,0.2-0.5
		c0.5-2.3,0.6-3.6,0.3-4.1c-1-1.6-1-2.9,0-3.9c1.3-1.4,2.3-1.9,3.3-1.6s1.6,1.5,2,3.4c0.4,1.3,0.3,3.2-0.3,5.8h-0.2
		c0.6,0,1.1,0.1,1.6,0.2c2.2,0.1,4-0.2,5.3-0.8c1.3-0.4,3-0.1,5.3,0.9c1,0.5,1.2,1.6,0.5,3.1c-0.7,1.5-1.8,2.1-3.1,2
		c-2.8-0.6-6.4-0.7-10.8-0.3C505,86.2,504.8,86.3,504.7,86.4z"/>
	<path fill="#FFFFFF" d="M608.1,121.7c-0.2-1.3-0.8-2.2-1.7-3c-1-0.6-4-0.1-8.8,1.6c-5.7,2.2-10.5,4.3-14.4,6.3l-0.6,0.2c-0.5,0.3-0.9,0.5-1.3,0.6
		c-1.6,0.6-2.6,0.6-3-0.2c-0.7-1.5-0.6-2.6,0.3-3.3c5.2-3.6,11.3-9.1,18.3-16.3c3.9-4,6.6-7.7,8.1-11.3c0.7-2.1,0.4-3.8-0.9-5.2
		c-1.3-1.6-1.5-2.8-0.8-3.8c1.3-1.1,2.6-1,3.9,0.3c0.7,0.6,1.5,1.3,2.2,1.9c1.7,1.1,2,3.3,1.1,6.4c-1.1,3.9-4.4,8.6-9.8,14.2
		c-2.6,2.6-4.9,4.9-6.9,6.9c8.4-3.2,13.8-4.2,16.1-3c1.6,0.9,2.6,2.9,3,5.8c0.4,2.6-1,6.7-4.2,12.3c-3.5,6.5-7.6,12.2-12,17.3
		c0.3,0.2,0.6,0.5,0.9,0.9c0.5,0.8,0.8,1.9,0.8,3.3c0,1.8-0.2,3.8-0.6,6.1c-0.5,4.1-0.9,7.9-1.3,11.4c-0.3,4.4-0.5,8.6-0.6,12.8
		c0.1,2.4,0.2,3.9,0.3,4.5c0.3,0.3,0.4,0.7,0.3,1.1c0,0.5,0,1.1,0,1.9c0.2,2.7-0.2,4.4-1.1,5.2c-1,0.9-1.8,1.2-2.2,0.8
		c-0.7-0.2-1.3-1.6-1.7-4.1c-0.3-1.7-0.4-2.7-0.3-3.1c0.1-0.4,0.1-0.8,0-1.3c-0.1-0.8-0.1-3.5,0-8c0.3-6.3,0.8-12.1,1.4-17.5
		c0.7-4.9,1.1-7.9,1.1-8.9c-0.1-0.8-0.2-1.3-0.3-1.4c-4.8,4.8-10.5,9.1-17.2,12.8c-3.3,1.7-6.3,1.5-8.8-0.5
		c-0.7-0.7-0.9-1.3-0.5-1.7c0.5-0.6,1.3-0.7,2.3-0.3c1.7,0.6,3.2,0.6,4.5-0.2c7.3-4.7,13-9.3,17-13.8c5.5-6.1,10.1-12.6,13.6-19.2
		C607,125.9,608.2,122.9,608.1,121.7z M652.7,153.9c6.7,0.5,10.6,1.1,11.9,1.9c1.1,0.6,1.9,1.8,2.3,3.4c0.4,1.4,0.2,2.4-0.8,3.1
		c-1,0.7-1.9,0.7-2.7,0c-1.1-1.1-3.3-1.9-6.6-2.3c-6.7-0.9-12.2-1.4-16.7-1.3c0.3,13.1,0.3,20.8-0.2,23c-0.3,2.1-0.4,4.2-0.3,6.4
		c0.2,2.1,0.2,3.5-0.2,4.2c-0.1,0.6-0.1,1.6,0,3c0.2,1.1,0.1,2-0.3,2.7c-0.4,0.7-1.5,0.8-3.1,0.2c-1.8-0.5-2.4-1.5-2-2.8
		c0.5-1.8,0.6-3.8,0.3-5.9c-0.2-2.9,0.1-5.8,0.8-8.8c0.5-2.5,0.6-8.6,0.3-18.3c-0.1-1.1-0.2-2.2-0.2-3.3c-3.2,0.2-6.3,0.8-9.2,1.9
		c-0.9,0.2-1.7,0.3-2.3,0.3c-4.4,5.2-7.9,9-10.5,11.3c-0.8,0.7-2,1-3.6,0.9c-0.9-0.1-1.6-0.5-1.9-1.1c-0.4-0.8,0.1-1.8,1.4-2.8
		c5.1-4.3,10.2-9.9,15.3-16.9c5.2-6.9,8.6-13.5,10.3-19.8c0.1-1-0.1-1.9-0.5-2.5c-0.4-0.8,0.1-1.9,1.4-3.3c0.5-0.4,1.1-0.6,1.9-0.5
		c0-0.9,0.1-1.8,0.2-2.5c-0.3,0.2-0.6,0.4-0.9,0.5c-6.4,3.1-10.6,4.8-12.8,5.2c-2.5,0.3-4.1,0.4-4.8,0.3c-0.6-0.2-1.1-1.1-1.4-2.8
		c-0.6-3.1,0.2-4.2,2.3-3.1c0.5,0.2,1.3,0.3,2.3,0.2c2.4-0.2,4.7-0.8,7-1.9c3.5-1.7,6.5-3,8.8-4.1c0.6-7,1-14.9,1.1-23.8
		c0.1-5.3,0-8.2-0.3-8.6c-0.4-0.7-1.6-1.5-3.4-2.2c-1.5-0.7-2.1-1.5-2-2.2c0.2-0.7,0.7-1.3,1.4-1.7c0.9-0.3,2.4-0.1,4.4,0.6
		c1.6,0.6,2.7,1.6,3.4,3c0.6,1.4,1,3.1,1.1,5.3c-0.1,10.6-0.4,19.7-0.8,27.2c4.4-2.6,6.6-4,6.7-4.1c0-0.2-0.4-1.4-1.1-3.6
		c-0.3-0.7-0.3-1.3,0.2-1.7c0.4-0.5,0.9-0.6,1.6-0.2c2.6,2.3,4.4,3.6,5.3,3.9c1.1,0.3,1.4,1.1,0.6,2.5c-0.6,0.9-0.9,1.8-0.8,2.5
		c0,0.6-0.5,0.9-1.4,0.8c-0.4-0.1-3.8,1.5-10.2,4.7c-0.5,0.2-1,0.5-1.4,0.8c0,0.3,0,0.5,0,0.6c-1.7,14.4-2.6,24.9-2.7,31.6
		C643.7,153.5,647.9,153.6,652.7,153.9z M628.9,154.8c1-0.4,2.2-0.7,3.4-0.8c1-0.2,2.1-0.3,3.1-0.2c-0.1-3.1,0-6.3,0.3-9.4
		C633.8,147.6,631.5,151.1,628.9,154.8z M651.1,91.5c0.6-1.4,1.4-1.9,2.3-1.6c3.3,1.4,5.7,2.7,7,4.1c1.3,1,1.9,2,2,3
		c0.2,1.3,0.1,2.1-0.3,2.5c-0.7,1.4-1.5,2-2.2,2c-0.6,0-1-0.8-1.1-2.3c-0.2-1-0.6-1.8-1.3-2.2c-1.4-1.1-3.3-1.9-5.8-2.3
		C650.7,94.2,650.5,93.2,651.1,91.5z M678.4,137.2c9-3.4,17.4-6.1,25.3-8c2.7-0.4,4.9-0.4,6.6,0c2.2,0.9,3.2,2.2,3.1,3.9
		c-0.1,1.7-0.6,2.7-1.6,3c-1,0.4-2.1,1-3.1,1.7c-2.1,2-3.9,3.2-5.5,3.6c-1.5,0.5-2.7,0.4-3.6-0.3c-0.6-0.5-0.5-1,0.5-1.4
		c1.4-0.7,2.7-1.8,4.1-3.1c0.8-0.8,1.1-1.5,0.8-1.9c-0.5-0.4-1.8-0.5-3.8-0.2c-1.4,0.2-4.9,1.3-10.6,3.3c1.1,2.1,1.8,6.9,1.9,14.4
		c0.1,11.9,0.5,25.1,1.1,39.5c0.3,7.4-0.4,13.5-2,18.3c-0.7,3.9-2,5.9-3.9,6.3c-1.8,0.2-3.5-0.2-5.2-1.1c-13-3.2-21.6-6.3-25.8-9.2
		c-1.3-1-1.7-1.9-1.3-2.7c0.5-0.7,1.3-0.9,2.3-0.5c8.8,4.1,15.5,6.6,20.3,7.7c4.4,1,7.1,1.2,8.1,0.5c0.6-0.2,1.1-1.9,1.6-5.2
		c0.8-4.5,1.1-10.8,0.8-18.9c-0.3-9.6-0.5-20.8-0.5-33.8c-0.1-8.5-0.7-13-1.7-13.4c-0.2-0.1-0.5-0.2-0.8-0.3c-1.9,0.6-3.8,1.3-5.8,2
		c-15,4.7-23.3,6.7-25,5.9c-2.9-1.1-4.2-2.7-3.8-4.7c0.2-0.8,0.7-1.4,1.4-1.7c0.7-0.2,1.3,0,1.7,0.6c0.3,0.3,0.7,0.6,1.1,0.9
		c0.1-0.1,0.2-0.2,0.3-0.2c6.7-5,14.7-12.5,24.2-22.5c6-6.4,8.6-10.2,7.7-11.4c-0.2-0.3-1.1-0.3-2.8,0.2c-4.4,1.4-7.9,2.2-10.5,2.7
		c-3.6,0.7-6.1,0.9-7.5,0.5c-1.4-0.4-2.2-1.5-2.5-3.1c-0.2-1.4,0.2-2.5,1.1-3.4c0.5-0.5,1.1-0.3,1.9,0.6c0.8,0.7,1.9,1,3.3,0.9
		c2.8-0.3,6.5-1.1,10.9-2.3c3.2-0.8,5.7-1.3,7.3-1.4c1-0.1,2.2,0.5,3.6,1.9c1.4,1.5,2,2.9,2,4.2c0.1,2-0.8,4.1-2.8,6.4
		c-2.2,2.5-12.2,11.4-30,26.7C666.2,141.1,671.8,139.5,678.4,137.2z"/>
	<path fill="#FFFFFF" d="M787.7,149.7c23.6,1.3,45.5,6.9,65.6,17c7.2,3.8,11.3,6.6,12.3,8.6c0.6,1.1,1.1,1.9,1.6,2.3c1.7,1.1,2.3,2.7,2,4.7
		c-0.2,1.4-1,2-2.3,1.9c-0.9-0.1-2.2,0-3.9,0.3c-2.5,0.5-4.6,0.7-6.3,0.6c-1.6-0.2-2.4-0.7-2.5-1.4c0-0.7,0.6-1.1,1.9-1.3
		c4-0.7,6.1-1.5,6.6-2.2c0.7-1.7-4.3-5.1-15-10.2c-19.6-9.8-40.7-15.4-63.3-16.7c-3.2,3.3-6.9,7.2-11.1,11.6
		c-7.5,7.4-14.1,13.3-19.7,17.8c-4.8,3.8-8.8,6.3-11.9,7.7c-1.4,0.5-2.4,0.6-3.1,0.2c-0.5-0.2-0.8-0.6-0.9-1.3
		c-0.1-0.4,0.3-0.8,1.3-1.3c5-2.7,10.7-6.9,17-12.7c6.3-5.6,10.4-9.6,12.3-11.9c2.8-2.9,5.5-5.7,8.1-8.3c4.1-3.9,8.6-9.3,13.6-16.3
		c6-8.3,11.5-15.5,16.3-21.6c4.8-5.8,7.7-9.8,8.8-12c0.8-1.6,1.3-2.6,1.4-3c0-0.5-0.2-0.8-0.6-0.9c-0.4-0.2-1-0.3-1.7-0.2
		c-0.5,0.1-1,0-1.4-0.3c-0.4-0.5-0.6-1.4-0.5-2.7c0-0.8,0.4-1.4,1.1-1.7c2.1-0.6,4.3-0.3,6.6,0.9c2.4,1,3.6,2,3.8,3
		c0,0.6-0.7,2-2,4.2c-2.3,3.8-6.1,8.9-11.4,15.5c-6.5,7.8-12,15.2-16.7,22C791.9,144.3,790,146.7,787.7,149.7z"/>
	<path fill="#FFFFFF" d="M976.1,215.8c-1.5,0-3.5-0.8-6.1-2.5c-11.3-7.6-19.6-14.7-25-21.4c-0.6-1.1-0.6-1.9,0.2-2.3c0.7-0.3,1.6,0,2.7,0.9
		c8.8,8,14.8,12.9,18.3,14.5c3.1,1.6,5.4,2.3,6.7,2.2c0.9-0.3,1.7-5.7,2.3-16.1c0.1-2.5-0.1-8-0.5-16.6c-0.4-11-0.6-18.9-0.5-23.6
		c0.3-5.4,0.4-9.7,0.3-13c0-0.4,0-0.8,0-1.3c-5,5.6-12.2,12.9-21.7,21.7c-8.8,7.7-18.3,14.1-28.6,19.2c-10.9,5.4-18.6,8-23.1,7.7
		c-1.6-0.2-2.3-0.9-2.2-2.2c0.1-0.6,0.7-0.9,1.7-0.8c3.4,0.1,11.1-3,23-9.4c9.2-5.1,18.3-11.8,27.3-20c11.9-11,19.7-19.3,23.6-24.7
		c0.2-4.3,0.4-8.6,0.5-13.1c-7,0.8-13.8,2.2-20.5,4.1c-11,2.9-19.4,5.5-25.2,7.8c-6.1,2.4-9.9,3.6-11.3,3.8
		c-1.8,0.1-3.6-0.2-5.6-0.9c-0.6-0.3-0.9-1-0.8-2c0.1-0.7,0.4-1.3,0.8-1.6c0.4-0.4,1-0.6,1.7-0.5c1,0,2.5-0.2,4.4-0.6
		c3-0.6,8.8-2.6,17.3-5.8c7.9-2.9,17.7-5.5,29.4-7.8c3.4-0.7,6.8-1.3,10-1.6c0.2-2,0.4-3.9,0.5-5.8c0.6-12.2,0.6-18.8-0.2-19.8
		c-0.6-0.6-1.9-0.6-3.9,0.2c-1.8,0.6-2.7,0.4-2.8-0.6c-0.2-0.8,0.4-1.9,1.7-3.3c1.1-1,2.8-1.6,5-1.6c2.5,0.1,4.1,0.7,4.8,1.7
		c0.9,1.4,1.4,2.9,1.3,4.5c-0.6,9.3-1.1,17.2-1.4,23.9c4.7-0.7,9.1-1.1,13.3-1.3c3.4-0.1,5.8,0,7.2,0.3c0.9,0.3,2,0.4,3.3,0.3
		c1.4-0.1,2.6,0,3.6,0.3c1.1,0.3,2.3,0.4,3.6,0.3c0.9,0.1,1.6,0.4,2,0.8c0.4,0.6,0.3,1.4-0.5,2.3c-0.5,0.6-1,1.5-1.4,2.5
		c-0.3,0.6-1.1,0.7-2.3,0.3c-1.7-0.6-3.5-0.6-5.5,0c-1.9,0.6-3.2,0.3-3.9-0.9c-0.4-0.6-1.1-1-2.2-1.1c-2.6-0.1-7.7,0.2-15.2,0.9
		c-0.8,0.1-1.6,0.2-2.2,0.3c-0.1,2.2-0.2,4.1-0.3,5.8c0.8,0.5,1.3,1.3,1.4,2.3c0.5,3.1,0.2,5.5-1.1,7.2c-0.2,0-0.3,0.2-0.3,0.5
		c0,6.1-0.2,12-0.5,17.7c-0.4,5.5-0.3,13.8,0.3,24.8c0.5,9.8,0.2,21.9-1.1,36.4C978.2,213.4,977.4,215.6,976.1,215.8z"/>
	<path fill="#FFFFFF" d="M1117.5,103.9c-2,0.9-3.3,0.9-4.1-0.2l-0.3-0.3c-0.1,0.6-0.3,1.1-0.6,1.6c-8,8.5-18.9,19.1-32.7,31.6
		c-1.7,0.9-3.2,1.3-4.5,0.9c-1.3-0.2-1.8-0.9-1.7-2.2c0.2-1,0.2-2.4-0.2-4.1c-0.2-1.6,0.2-3.6,1.3-6.3c0.6-1.3,1.3-1.8,2-1.7
		c0.7,0.1,1,0.5,0.9,1.3c0.1,4.1,0.3,6.1,0.6,6.3c0.3,0,2-1.3,5.2-3.8c8-6.6,17.3-14.7,28-24.4c0.4-0.5,0.8-0.8,1.1-0.8
		c0-0.4,0.1-0.8,0.2-1.1c0.2-0.9,0.8-1.6,1.7-1.9c0.4-0.1,1.1-0.5,2-1.1c0.9-0.7,2.4-2.1,4.4-4.1c2.8-3,4.8-5.5,6.1-7.3
		c0.9-1.5,1.5-2.5,1.6-3.1c0.3-1.4-0.1-2.5-1.1-3.4c-2.8-1.9-4-3.3-3.6-4.4c0.5-0.8,1.1-1.2,1.9-1.1c1.7,0.5,3.5,1.5,5.5,2.8
		c1.7,1.1,2.6,2.2,2.7,3.3c0.1,1.4-0.1,2.9-0.5,4.5c-0.5,1.3-1.1,2.6-1.9,3.9c-1.1,1.8-2.4,3.3-3.8,4.7c-1.5,1.6-2.2,2.4-2.2,2.5
		c0.4,0.3,2.3-0.1,5.8-1.1c4.8-1.8,9.6-3,14.4-3.8c6.6-1.1,11.6-1.2,15.2-0.2c1.6,0.4,2.9,1.5,3.9,3.1c1.3,1.9,1.3,3.4,0,4.7
		c-2.7,3.1-6,5.9-9.8,8.4c-2.7,2-6.8,4-12.2,5.9c-0.9,0.2-1.5,0-1.6-0.6c-0.3-0.8-0.1-1.3,0.6-1.4c5.8-3.8,10.2-7.1,13.1-10
		c2.8-2.9,3.9-4.7,3.3-5.5c-0.5-0.7-2.9-0.9-7-0.6c-4.7,0.2-11.9,1.6-21.6,4.2C1123.1,101.1,1119.1,102.6,1117.5,103.9z
		 M1101.9,191.5c12.8-4.6,20-6.9,21.6-7c1.5-0.2,2.7-0.6,3.8-1.3c1.1-0.6,2.1-0.6,2.8,0.2c0.7,0.7,0.6,2.2-0.5,4.4
		c-0.6,1.1-5.1,5.1-13.3,11.7c-8.2,6.9-15.2,11.9-20.8,15.2c-5.1,3-8.3,4.3-9.7,3.9c-1-0.4-1.5-1.5-1.4-3.1c0.3-2.3,0.8-3.4,1.4-3.4
		c0.7-0.1,1.1,0.5,1.1,1.7c0.1,0.9,2.5,0,7.2-2.8c4.3-2.7,12.6-9,24.8-18.8c1.1-0.9,1.7-1.6,1.6-1.9c-0.4-0.5-3.2,0.2-8.3,2.2
		c-4.5,1.8-10.2,3.8-17.2,6.1c-9.9,3.2-15.5,4.5-16.9,3.9c-1.1-0.5-1.8-1.6-1.9-3.3c-0.2-1.7,0.5-2.1,2.2-1.4
		C1080.5,198.4,1088.3,196.3,1101.9,191.5z M1082.5,92.8c0.7-1.4,1.5-1.8,2.2-1.4c4.7,1.8,8,3.6,10,5.6c1.6,1.5,2.5,2.8,2.8,4.1
		c0.2,1.6,0.1,2.7-0.3,3.4c-0.8,1.4-1.6,2-2.3,2c-0.5,0-0.8-0.8-0.9-2.3c-0.2-1.7-0.8-3-1.9-3.9c-2.2-1.9-5.2-3.3-9.1-4.4
		C1081.9,95.5,1081.8,94.5,1082.5,92.8z M1145.8,197.3c-1.5,1-2.7,1.5-3.6,1.4c-0.9-0.1-1.4-0.7-1.4-1.7c-0.1-1.4,0.2-2.2,0.8-2.7
		c0.8-0.7,1.3-1.5,1.3-2.2c0.3-4.9,0.6-12,0.9-21.4c0.2-8.8,0.2-16.7-0.2-23.9c-0.2-3.1-1.1-5.2-2.8-6.3c-2.4-0.9-6.8-0.7-13.1,0.6
		c-8.8,1.9-16.8,4.4-24.1,7.5c-0.5,2.3-0.9,4.9-1.3,7.8c1.8-0.3,4.7-1,8.8-2c7.8-2,13.8-2.8,17.8-2.5c1.1,0,1.7,0.5,1.6,1.4
		c0,0.6,0.1,1.1,0.2,1.6c0.4,0.7,0.2,1.3-0.8,1.7c-0.8,0.4-1.7,1.1-2.7,2c-1.6,1.5-4.2,3.5-8,6.1c-4.1,2.7-6,4.2-5.9,4.5
		c0.1,0.3,0.8,0.3,2-0.2c5.7-1.7,9.7-2.6,12-2.7c3.8,0.2,4.5,1.9,2.3,5.2c-2.6,4.8-8.9,8-18.9,9.7c-1.6,0.2-2.5-0.1-2.8-0.8
		c0-0.7,0.4-1.1,1.1-1.3c9-2.9,13.1-5.3,12.3-7.2c-0.3-0.5-3.6-0.1-10,1.3c-2,0.4-3.6,0.6-4.8,0.6c-1.5,0.3-2.4,0.2-2.8-0.5
		c-0.2-0.3,0-0.8,0.6-1.4c1.4-1.5,2.5-2.4,3.4-2.8c0.8-0.7,3.8-3,8.9-6.9c3.5-2.9,5.3-4.4,5.2-4.5c-0.3-0.7-3.2-0.4-8.6,0.9
		c-4.7,1.1-7.6,1.8-8.6,1.9c-0.8,0.1-1.6,0.2-2.2,0.2c-0.3,0-0.5,0-0.6,0c-0.2,1.6-0.4,3.2-0.5,4.8c-1,12-1.4,19.6-1.1,22.8
		c0.2,1.8,0,2.6-0.6,2.5c-1.1-0.2-2.2,0-3.3,0.6c-1.1,0.4-1.5-0.1-1.1-1.4c0.4-1,0.5-1.9,0.2-2.5c-0.4-0.9-0.3-5.1,0.3-12.3
		c0.9-9.5,1.8-16.9,2.5-22.3c0.8-4.5,1.8-8.3,2.8-11.6c0.4-1.1,1-1.7,1.7-1.7c0.8-0.1,1.5,0.2,1.9,0.9c0.3,0.6,0.4,1.3,0.3,2
		c9.4-3.3,16.7-5.5,22-6.6c4.7-1.1,9.9-1.4,15.6-0.6c1.7,0.1,3.3,1.1,4.8,3.1c0.9,1.4,1.4,8.8,1.3,22.2c-0.3,15.2-0.7,25.9-1.1,32.2
		C1147.5,195,1146.8,196.4,1145.8,197.3z M1101.1,136.2c-0.9-0.3-1.5-0.8-1.6-1.6c-0.2-0.8,0.5-1.6,2-2.3c5.2-2.4,10.8-6,16.9-10.8
		c5.9-4.7,10.3-9.5,13.1-14.5c0.5-0.9,0.6-1.8,0.3-2.5c-0.2-0.8,0.5-1.8,2.2-2.8c1.4-0.5,2.6-0.1,3.6,1.3c0.9,1.4,0.5,3.6-1.4,6.9
		c-1.5,2.2-3.3,4.6-5.6,7.2c13.3,0.2,25.8,3,37.3,8.4c4.1,2,6.4,3.5,7,4.5c0.3,0.6,0.6,1.1,0.9,1.4c1.6,1.3,2.2,2.9,1.9,4.8
		c-0.4,1.5-1.3,2-2.7,1.7c-0.7-0.2-2-0.3-3.9-0.2c-2.3,0.2-4.3,0.2-5.9-0.2c-1.6-0.4-2.3-1-2.2-1.7c0-0.7,0.6-1.1,1.9-1.1
		c3.5-0.3,5.5-0.7,5.9-1.1c0.3-0.8-2.4-2.6-8.1-5.2c-10.6-4.8-22-7.3-34.2-7.7c-0.6,0-1.3-0.1-1.9-0.2c-1.5,1.1-3,2.4-4.5,3.8
		c-7.6,5.9-13.4,9.8-17.5,11.7C1103.7,136.6,1102.5,136.6,1101.1,136.2z M1152.8,209.3c2.3,1.8,3.6,3,3.9,3.8
		c0.1,0.5,0.2,0.8,0.3,0.9c1.5,1.6,1.8,3.3,1.1,5.2c-0.4,1.3-1.3,1.7-2.7,1.3c-0.5-0.3-1.5-0.5-2.8-0.6c-1.9-0.2-3.3-0.5-4.4-0.9
		c-1.5-0.6-2.1-1.3-2-2c0.1-0.6,0.8-0.9,2-0.8c2.2,0.1,3.4,0,3.8-0.3c0.3-0.5-1.1-1.9-4.4-4.2c-6.1-4.2-12.9-7.1-20.2-8.8
		c-2-0.4-2.9-1.3-2.8-2.5c0.2-1.3,1.7-1.7,4.5-1.3C1138.1,200.8,1145.9,204.2,1152.8,209.3z"/>
	<path fill="#FFFFFF" d="M1250.3,137.6c-4,1.5-6.9,2.6-8.8,3.3c-9.6,4-16.7,6.5-21.4,7.5c-4.1,0.8-7.4,0.2-10-2c-1.1-0.7-1.1-2,0.2-3.9
		c0.8-1,1.6-1.4,2.2-0.9c2.7,1.5,5.8,1.8,9.4,1.1c3.1-0.8,6.8-1.9,10.9-3.3c7.2-6,13.4-11.3,18.8-15.8c0.3-2.9,0.6-5.7,0.9-8.3
		c0.6-4,1.1-7.4,1.6-10.3c-4.7,5.7-8.3,9.6-10.9,11.6c-3.2,2.2-6.4,1.9-9.5-0.9c-3.3-2.7-5.5-7.2-6.6-13.4c-0.1-1.8,0.4-2.9,1.4-3.3
		c1.6-0.5,2.4-0.2,2.5,1.1c1.5,7.9,4,12.1,7.5,12.5c1.8,0.1,7.3-5.1,16.7-15.5c0.6-4.8,0.9-8,0.9-9.7c-0.1-2.9-0.9-4.7-2.5-5.5
		c-1.4-0.6-1.8-1.5-1.4-2.5c1.3-1.6,2.2-2.3,3-2.2c1,0.1,2.1,0.8,3.1,2.2c1.9,2.6,2.8,6,2.7,10.2c-0.1,0.4-0.2,0.8-0.2,1.3
		c2.4-2.3,4.7-3.8,6.9-4.5c3.4-1,5.8-0.4,7.2,1.9c3.3,5.8,2.3,12.7-3.1,20.5c-3.5,4.9-8.6,10.4-15.3,16.4c-0.2,1.9-0.4,3.8-0.5,5.6
		c2.9-1.1,6.3-2.3,10.2-3.6c0.9-0.2,1.4-0.7,1.3-1.4c0-0.7,0.4-1.3,1.1-1.7c0.8-0.3,2-0.3,3.6,0c1.4,0.2,2.9,0.3,4.5,0.3
		c1.1,0,1.5,0.5,1.1,1.6c-0.2,0.7-0.3,1.5-0.3,2.2c0.1,1-0.4,1.6-1.4,1.6c-1.3,0.1-3.6,0.7-7.2,1.7c-5.3,1.6-9.7,3.1-13.3,4.7
		c-0.4,2.6-0.7,5.2-0.8,7.8l0.2,0.2c0.7,0.9,0.6,2-0.5,3.3c-0.7,7-1.1,14-1.3,20.9c3.9-3.4,7.7-6.9,11.6-10.5
		c3.8-3.1,6.9-6.1,9.5-9.1c0.6-0.9,1.3-1.1,2-0.5c0.8,0.6,0.9,1.5,0.2,2.5c-2.7,3.8-5.5,7.1-8.3,10c-5.9,5.3-11,9.7-15.2,13.3
		c-0.1,3.3-0.2,6.7-0.2,10.2c0,7.4,0.4,12.1,1.1,14.1c0.8,0.8,1.1,2,0.8,3.6c-0.1,1.3-0.1,3.1,0,5.6c0.2,2.7-0.2,4.4-1.1,5.2
		c-0.9,0.9-1.7,1.2-2.3,0.8c-0.6-0.2-1.1-1.6-1.6-4.2c-1-5.2-1.4-8.4-1.1-9.7s0.3-2.6,0-3.9c-0.6-2.3-0.8-8.2-0.5-17.7
		c-3,2.4-5.5,4.3-7.5,5.6c-5.2,3.1-10.4,5.5-15.5,7c-1.1,0.4-2.2,1.1-3.3,2.2c-0.5,0.4-1.1,0.4-1.9,0c-0.6-0.4-1.1-1.1-1.6-2
		c-0.5-0.9-0.5-1.8,0.2-2.5c0.6-0.8,1.3-1.8,1.9-2.8c1.4-2.7,4.7-7.8,10.2-15.3c6.5-9.5,12.9-18.2,19.2-26.1
		C1250.1,141.7,1250.2,139.6,1250.3,137.6z M1249.2,153.3c-7.8,9.3-14.6,18.6-20.3,28.1c-0.8,1.4-1,2.3-0.6,3c0.5,0.5,1.9,0,4.2-1.6
		c5.4-3.4,10.7-7.1,15.8-10.9c0-0.4,0.1-0.8,0.2-1.1C1248.5,164.5,1248.8,158.7,1249.2,153.3z M1250.8,132.3c0-1,0.1-1.9,0.2-2.7
		c-2,1.5-4,3-5.9,4.7C1246.7,133.6,1248.6,132.9,1250.8,132.3z M1258.6,108.6c-0.5,3.1-0.9,6.3-1.3,9.5c4.3-4.2,7.4-7.7,9.4-10.6
		c3.9-5.6,5.4-10.2,4.7-13.8c-0.5-2.4-1.5-3.6-2.8-3.6c-2.5,0.3-5.2,2.4-8.1,6.3C1260,100.1,1259.3,104.2,1258.6,108.6z
		 M1264.1,175.1c-0.8-0.3-0.9-1.4-0.2-3.3c0.6-1.7,1.3-2.1,2-1.4c0.7,0.6,1.8,0.8,3.1,0.5c24.4-5.7,41.7-9.4,52-10.9
		c0-2.8,0-5.7,0-8.6c-0.3-19.2-0.2-33.5,0.5-43c0.6-8.4,1-14.4,1-17.8c-0.1-3.4-0.9-5.6-2.2-6.6c-1.3-0.8-1.5-1.7-0.8-2.7
		c0.7-0.7,1.8-1,3.2-0.9c2,0.3,3.3,1.3,3.7,3c0.8,3,0.9,9.3,0.3,18.8c-1.2,16.9-1.4,33.6-0.6,50.3c0,2.3,0,4.6,0,6.9
		c1.5-0.4,2.7-0.6,3.8-0.6c5.7-0.3,10.5-0.9,14.4-1.9c3.3-0.6,7.9,1,13.6,4.8c2.1,1.6,2.6,2.6,1.6,3c-1.5,0.5-2.4,1.1-2.8,1.9
		c-0.4,0.7-1.5,0.5-3.1-0.8c-3.6-2.8-8.6-3.9-14.8-3.3c-3.8,0.2-7.9,0.8-12.3,1.7c0.2,12.6,0.1,23.6-0.3,33.1
		c-0.6,11.6-1.9,19.8-3.8,24.8c-0.5,1.3-1.3,2.2-2.3,2.8c-0.9,0.6-1.8,0.8-2.5,0.5c-0.7-0.3-0.7-1.5,0-3.4
		c1.7-4.8,2.7-12.2,3.1-22.3c0.4-9.6,0.6-21.1,0.6-34.7c-14.1,2.2-31.5,5.8-52.2,10.8C1267.7,176,1266,175.8,1264.1,175.1z
		 M1314.1,104.8c1.7,0.5,2.2,2.2,1.6,5.2c-0.9,4-5.6,8-14.1,12.2c-8,4.3-12,7.1-11.9,8.4c0.3,0.6,2.2,0.8,5.6,0.5
		c4.2-0.4,8.3-0.7,12.5-0.8c2.2,0.1,3.3,1.6,3.3,4.4c-0.7,4.3-6.1,9.3-16.3,15c-0.9,0.5-1.7,0.4-2.3-0.3c-0.5-0.8-0.3-1.6,0.8-2.3
		c8.2-5.8,12.2-9.4,11.9-10.6c-0.8-1.3-3.1-1.8-6.9-1.7c-6.1,0.2-10.1,0.3-11.7,0.3c-1.9-0.4-2.3-2.1-1.3-5c1.7-3,5.7-6.3,12-9.8
		c9.7-5.4,14.4-9.1,14.1-11.1c-0.2-0.9-1.9-1.8-5.2-2.5c-4.4-1-8.8-2.7-13.3-5c-0.5-0.4-0.7-1.1-0.6-2.2c0.2-1,0.5-1.8,0.9-2.2
		c0.5-0.4,1.1-0.4,1.7,0C1298.5,99.3,1304.9,101.9,1314.1,104.8z"/>
	<path fill="#FFFFFF" d="M1475.2,87.8c1.6,0.3,2.3,0.8,2.2,1.6c0,0.9-0.2,1.6-0.5,2c-0.3,0.6-1.3,1-3,1.1c-3.6,0.3-6.3,1.1-7.8,2.5
		c-1.5,1.4-2.7,1.4-3.6,0c-0.8-1.1-4.9-1.3-12.2-0.3c-5,0.6-11.6,2-19.7,4.2c-5.1,1.3-9.4,2.2-13,3c-0.2,0.4-0.4,1-0.5,1.7
		c-0.5,1.5-2.1,8.2-4.7,20.2c-3.2,15.8-6.6,28.8-10,38.9c-4.1,12.1-7.8,20.8-11.3,26.3c-3.5,5.8-6.5,9.7-8.8,11.7
		c-1.9,1.5-3.4,2.1-4.7,2c-1.4-0.3-2.3-1.1-3-2.5c-0.5-1.3-0.6-2.1-0.2-2.5c0.5-0.4,1-0.3,1.4,0.3c0.3,0.4,0.6,0.7,0.9,0.8
		c0.5,0,1.1-0.3,1.9-0.9c0.7-0.5,1.9-1.6,3.4-3.3c1.8-2.1,3.9-5.5,6.4-10.3c2.8-5.4,5.8-13,8.9-22.8c3.6-12,8.6-31.6,14.8-58.8
		c-4.1,0.1-6.8-0.1-8.1-0.5c-1.3-0.6-1.9-1.6-1.9-3c0.1-1.7,0.4-2.6,0.8-2.7c0.4-0.3,1.3-0.2,2.5,0.5c1.8,0.7,5.4,0.7,10.8,0
		c5.5-0.8,12.2-2.2,20.2-4.1c7.9-1.9,15.7-3.3,23.3-4.2C1467.3,87.8,1472.4,87.5,1475.2,87.8z M1427.2,115.6c0.6-2.3,1.6-3.2,3-2.8
		c3.6,1,10.1,0.1,19.2-2.8c0.3-0.2,0.8-0.3,1.4-0.3c-0.2-2.7-0.4-4.1-0.5-4.2c-0.4-0.7-1.6-1.5-3.4-2.2c-1.5-0.7-2.1-1.5-2-2.2
		c0.1-0.7,0.5-1.3,1.3-1.6c0.9-0.5,2.4-0.4,4.4,0.3c1.7,0.6,2.9,1.6,3.7,3c0.8,1.4,1.2,3.2,1.3,5.5v0.2c6.5-1.8,10.7-2.7,12.7-2.7
		c1.1-0.1,2.2,0.2,3.3,0.8c0.4,0.3,0.8,0.4,1.3,0.3c3.8,0.8,4,2.6,0.8,5.2c-0.7,0.6-1.6,1.1-2.5,1.6c-6.4,3.6-10.5,5.5-12.3,5.6
		c-1.7,0.2-2.6-0.1-2.7-0.8c-0.2-0.8,0.2-1.5,1.3-1.9c1.7-0.4,3.6-1.3,5.9-2.7c2.7-1.5,4-2.2,3.9-2.3c-0.4-0.7-4.3-0.2-11.6,1.7
		c0,5.5,0,10.6,0,15.3c3.3-1,6.4-1.8,9.2-2.2c3.9-0.6,7.7-0.9,11.6-0.8c3.9,0.2,7.2,1.3,10.2,3.3c2.1,0.6,3.3,2.1,3.8,4.4
		c1,2.7,0.3,6.8-2.3,12.2c-3.2,6.5-7.2,12.6-12,18.3c0.2,0,0.3,0.2,0.3,0.5c-0.1,0.9-0.2,1.6-0.3,2c-0.3,0.7-1.3,1.1-3,1.3
		c-2.3,0.2-3.8,0.8-4.5,1.7c-0.8,0.7-1.6,0.7-2.2,0c-0.6-0.6-3-0.6-7.2,0.2c-1.8,0.2-3.6,0.7-5.5,1.4c0,4.8,0,8.5,0,11.1
		c0,1,0,2.1,0,3.1c2.6-0.5,5.4-0.8,8.3-0.9c7.9-0.6,16.3-0.8,25.2-0.5c5,0.2,9.4,1.1,13.3,2.7c2.1,0.8,3.3,1.8,3.6,2.8
		c0.2,1-0.1,2-0.8,3c-0.9,1-2,1.2-3.3,0.5c-1.7-1.1-3.5-1.9-5.5-2.3c-3.8-1-9.1-1.6-15.9-1.7c-7.4-0.1-14.9,0.2-22.5,0.9
		c-0.7,0.1-1.4,0.2-2,0.3c0.5,10,0.6,16,0.3,18c-0.3,2.3-0.4,4.6-0.3,6.9c0.3,2.3,0.3,3.8,0,4.5c-0.2,0.6-0.2,1.6,0.2,3
		c0.3,1.3,0.3,2.2-0.2,2.8c-0.5,0.6-1.7,0.7-3.4,0.3c-1.7-0.5-2.4-1.5-2.1-2.8c0.5-1.8,0.6-3.8,0.2-6.1c-0.3-3.1-0.2-6.3,0.5-9.4
		c0.3-2.5,0.3-8-0.2-16.6c-7.5,1-14.9,2.5-22.2,4.4c-9.2,2.3-16.8,3.8-22.8,4.5c-1.4,0.1-2.4-0.2-3.1-0.9c-0.7-0.8-0.9-1.8-0.6-2.8
		c0.3-0.7,1.1-1.1,2.5-1.3c5.5-0.8,16.5-3,32.8-6.4c4.2-1,8.6-1.8,13.3-2.2c0-4.6,0-9.1,0-13.6c-0.5,0.1-0.9,0.2-1.3,0.3
		c-4.2,1.3-7.7,2.1-10.5,2.5c-0.8,0.1-1.6,0.2-2.2,0.2c-0.2,0-0.3,0.1-0.3,0.2c-1,0.2-1.9,0.8-2.7,1.9c-0.7,1-1.3,0.8-1.6-0.8
		c-0.2-0.9-0.5-1.6-0.9-1.9c-0.7-0.4-2.2-3.6-4.5-9.5c-3.2-7.5-5.5-13.5-6.9-18c-1.3-3.8-2.1-7.1-2.5-10c-0.2-1.1,0-1.9,0.6-2.3
		c0.7-0.3,1.5-0.3,2.2,0.2c0.9,0.4,1.5,1.3,1.6,2.5c0.1,0.5,0.2,1.1,0.3,1.7c-0.2-0.1-0.2-0.2,0.2-0.2c10-3,19.7-5.9,29.2-8.8
		c0.6-0.2,1.1-0.4,1.6-0.5c0-4.8,0-9.7,0-14.8c-0.1-0.1-0.1-0.2,0-0.2c-0.4-0.1-0.7-0.1-0.8,0c-10.5,3.1-17.7,4.5-21.6,4.1
		C1427.2,118.3,1426.8,117.3,1427.2,115.6z M1422.5,142.5c-0.5,0.2-1,0.3-1.4,0.2c1,3.4,2.6,7.6,4.5,12.3c2.6,6.4,4.7,11.1,6.3,14.2
		c0.4,0.2,0.8,0.4,1.3,0.5c1,0.4,3.2,0.3,6.4-0.3c2.7-0.5,5.8-1.3,9.4-2.2c0.1-2.3,0.2-4.4,0.3-6.4c-4.4,2.4-7.6,3.8-9.5,4.1
		c-1.7,0.2-2.6-0.1-2.7-0.8c-0.2-0.8,0.2-1.5,1.3-1.9c3.4-1.3,7.2-3.1,11.3-5.6c0.1-0.8,0.2-1.5,0.3-1.9c0.1-1.8,0.2-3.6,0.3-5.5
		c-9,3-15.1,4.5-18.3,4.4c-1.5-0.2-2-1.1-1.6-2.8c0.5-2.3,1.5-3.3,2.8-3c3.2,0.6,8.8-0.5,16.7-3.4c0.3-0.1,0.5-0.1,0.6,0
		c0.2-3.1,0.4-6.4,0.5-9.8C1442.4,136.7,1432.9,139.3,1422.5,142.5z M1445.6,78.4c2.7,3.2,2.7,6.3-0.2,9.2c-1.9,0.8-4.6,1.6-8.1,2.3
		c-2.8,0.4-4.3,0.1-4.4-0.9c-0.1-0.9,0.8-1.6,2.7-2c2.4-1.3,4.1-2.2,5.2-3c0.6-0.4,0.9-0.8,0.9-1.1c-0.2-2-3.3-4.3-9.2-6.9
		c-2.4-0.9-3.4-1.9-3-2.8c0.4-1.3,1.8-1.7,4.1-1.3C1438.2,73.2,1442.2,75.3,1445.6,78.4z M1482.8,146.2c1.9-4.7,2.5-7.9,1.9-9.5
		c-0.3-2.1-0.8-3.4-1.4-4.1c-1.1-1.6-3.6-2.4-7.5-2.5c-4.4-0.3-9.7,0.4-16.1,2c-1.6,0.4-3,0.8-4.4,1.3c-0.1,3.2-0.2,6.3-0.3,9.2
		c5.5-2,9.1-3,10.8-3.1c1.3-0.1,2.4,0.2,3.4,0.8c0.4,0.3,0.8,0.4,1.3,0.3c3.8,0.8,4.1,2.6,0.9,5.2c-1.6,1.4-3.3,2.7-5.2,3.9
		c-4.7,3.1-8.8,5.8-12.3,8.1c-0.3,2.9-0.5,5.7-0.5,8.3c3.8-1,7.6-1.9,11.4-2.5c2.7-0.4,4.9-0.6,6.6-0.6
		C1476.5,157.2,1480.3,151.6,1482.8,146.2z M1454.2,153.6c0.1-0.1,0.2-0.2,0.3-0.3c7.3-4.8,10.7-7.4,10.3-7.8
		c-0.4-0.7-3.8,0-10.2,2.2C1454.4,149.7,1454.2,151.7,1454.2,153.6z"/>
</g>
</svg>
